<svg width="224" height="58" viewBox="0 0 224 58" fill="none" xmlns="http://www.w3.org/2000/svg">
<rect width="224" height="58" rx="29" fill="white"/>
<path d="M50.3672 32.3633H45.7441L44.8652 35H42.0615L46.8252 22.2031H49.2686L54.0586 35H51.2549L50.3672 32.3633ZM46.4561 30.2275H49.6553L48.0469 25.4375L46.4561 30.2275ZM64.2256 30.333C64.2256 31.7979 63.8916 32.9727 63.2236 33.8574C62.5615 34.7363 61.665 35.1758 60.5342 35.1758C59.5732 35.1758 58.7969 34.8418 58.2051 34.1738V38.6562H55.665V25.4902H58.0205L58.1084 26.4219C58.7236 25.6836 59.5264 25.3145 60.5166 25.3145C61.6885 25.3145 62.5996 25.748 63.25 26.6152C63.9004 27.4824 64.2256 28.6777 64.2256 30.2012V30.333ZM61.6855 30.1484C61.6855 29.2637 61.5273 28.5811 61.2109 28.1006C60.9004 27.6201 60.4463 27.3799 59.8486 27.3799C59.0518 27.3799 58.5039 27.6846 58.2051 28.2939V32.1875C58.5156 32.8145 59.0693 33.1279 59.8662 33.1279C61.0791 33.1279 61.6855 32.1348 61.6855 30.1484ZM75.3682 30.333C75.3682 31.7979 75.0342 32.9727 74.3662 33.8574C73.7041 34.7363 72.8076 35.1758 71.6768 35.1758C70.7158 35.1758 69.9395 34.8418 69.3477 34.1738V38.6562H66.8076V25.4902H69.1631L69.251 26.4219C69.8662 25.6836 70.6689 25.3145 71.6592 25.3145C72.8311 25.3145 73.7422 25.748 74.3926 26.6152C75.043 27.4824 75.3682 28.6777 75.3682 30.2012V30.333ZM72.8281 30.1484C72.8281 29.2637 72.6699 28.5811 72.3535 28.1006C72.043 27.6201 71.5889 27.3799 70.9912 27.3799C70.1943 27.3799 69.6465 27.6846 69.3477 28.2939V32.1875C69.6582 32.8145 70.2119 33.1279 71.0088 33.1279C72.2217 33.1279 72.8281 32.1348 72.8281 30.1484ZM80.6309 35H78.082V21.5H80.6309V35ZM87.2822 31.4053L89.04 25.4902H91.7646L87.9414 36.4766L87.7305 36.9775C87.1621 38.2197 86.2246 38.8408 84.918 38.8408C84.5488 38.8408 84.1738 38.7852 83.793 38.6738V36.749L84.1797 36.7578C84.6602 36.7578 85.0176 36.6846 85.252 36.5381C85.4922 36.3916 85.6797 36.1484 85.8145 35.8086L86.1133 35.0264L82.7822 25.4902H85.5156L87.2822 31.4053ZM109.822 35H107.186L102.053 26.5801V35H99.416V22.2031H102.053L107.194 30.6406V22.2031H109.822V35ZM112.562 30.1572C112.562 29.2139 112.744 28.373 113.107 27.6348C113.471 26.8965 113.992 26.3252 114.672 25.9209C115.357 25.5166 116.151 25.3145 117.054 25.3145C118.337 25.3145 119.383 25.707 120.191 26.4922C121.006 27.2773 121.46 28.3438 121.554 29.6914L121.571 30.3418C121.571 31.8008 121.164 32.9727 120.35 33.8574C119.535 34.7363 118.442 35.1758 117.071 35.1758C115.7 35.1758 114.604 34.7363 113.784 33.8574C112.97 32.9785 112.562 31.7832 112.562 30.2715V30.1572ZM115.103 30.3418C115.103 31.2441 115.272 31.9355 115.612 32.416C115.952 32.8906 116.438 33.1279 117.071 33.1279C117.687 33.1279 118.167 32.8936 118.513 32.4248C118.858 31.9502 119.031 31.1943 119.031 30.1572C119.031 29.2725 118.858 28.5869 118.513 28.1006C118.167 27.6143 117.681 27.3711 117.054 27.3711C116.433 27.3711 115.952 27.6143 115.612 28.1006C115.272 28.5811 115.103 29.3281 115.103 30.3418ZM132.406 31.5459L133.654 25.4902H136.106L133.681 35H131.554L129.752 29.0146L127.95 35H125.832L123.406 25.4902H125.858L127.098 31.5371L128.838 25.4902H130.675L132.406 31.5459Z" fill="#111111"/>
<path d="M182.366 29.4216L175.258 22.3142C175.056 22.1114 174.785 22 174.497 22C174.208 22 173.938 22.1115 173.735 22.3142L173.09 22.9597C172.887 23.1622 172.775 23.4328 172.775 23.7213C172.775 24.0096 172.887 24.2893 173.09 24.4918L177.236 28.6472H164.063C163.469 28.6472 163 29.1122 163 29.7062V30.6187C163 31.2128 163.469 31.7246 164.063 31.7246H177.283L173.09 35.9032C172.887 36.1061 172.776 36.3693 172.776 36.6578C172.776 36.9459 172.887 37.213 173.09 37.4157L173.735 38.059C173.938 38.2619 174.208 38.3725 174.497 38.3725C174.785 38.3725 175.056 38.2605 175.259 38.0576L182.366 30.9504C182.569 30.7469 182.681 30.4752 182.68 30.1864C182.681 29.8966 182.569 29.6248 182.366 29.4216Z" fill="#FF6E43"/>
</svg>
