<svg width="76" height="14" viewBox="0 0 76 14" fill="none" xmlns="http://www.w3.org/2000/svg">
<path d="M46.1665 13.024H43.6104L39.8311 6.38824V13.024H37.2603V2.35992H39.8311L43.603 8.99567V2.35992H46.1665V13.024ZM52.1431 13.024C52.0552 12.8629 51.9771 12.626 51.9087 12.3135C51.4546 12.8848 50.8198 13.1705 50.0044 13.1705C49.2573 13.1705 48.6226 12.9459 48.1001 12.4966C47.5776 12.0425 47.3164 11.4737 47.3164 10.7901C47.3164 9.93073 47.6338 9.28131 48.2686 8.84186C48.9033 8.4024 49.8262 8.18268 51.0371 8.18268H51.7988V7.7652C51.7988 7.03766 51.4839 6.67389 50.854 6.67389C50.2681 6.67389 49.9751 6.96198 49.9751 7.53815H47.5068C47.5068 6.77155 47.8315 6.14899 48.481 5.67047C49.1353 5.19196 49.9678 4.9527 50.9785 4.9527C51.9893 4.9527 52.7876 5.19928 53.3735 5.69244C53.9595 6.18561 54.2598 6.86188 54.2744 7.72125V11.2296C54.2842 11.9571 54.3965 12.5137 54.6113 12.8995V13.024H52.1431ZM50.5977 11.4127C50.9053 11.4127 51.1592 11.3467 51.3594 11.2149C51.5645 11.0831 51.7109 10.9341 51.7988 10.7681V9.50104H51.0811C50.2217 9.50104 49.792 9.88678 49.792 10.6583C49.792 10.8829 49.8677 11.066 50.019 11.2076C50.1704 11.3443 50.3633 11.4127 50.5977 11.4127ZM57.9805 5.09918L58.061 6.02936C58.6226 5.31158 59.377 4.9527 60.3242 4.9527C61.3252 4.9527 62.0015 5.35065 62.353 6.14655C62.8901 5.35065 63.6665 4.9527 64.6821 4.9527C66.2886 4.9527 67.1138 5.92438 67.1577 7.86774V13.024H64.6821V8.02155C64.6821 7.61627 64.6138 7.32086 64.4771 7.13531C64.3403 6.94977 64.0913 6.85699 63.73 6.85699C63.2417 6.85699 62.8779 7.07428 62.6387 7.50885L62.646 7.61139V13.024H60.1704V8.03619C60.1704 7.62115 60.1045 7.32086 59.9727 7.13531C59.8408 6.94977 59.5894 6.85699 59.2183 6.85699C58.7446 6.85699 58.3833 7.07428 58.1343 7.50885V13.024H55.666V5.09918H57.9805ZM72.4019 13.1705C71.186 13.1705 70.2021 12.8091 69.4502 12.0865C68.6982 11.3589 68.3223 10.4141 68.3223 9.25201V9.04694C68.3223 8.23639 68.4712 7.52106 68.769 6.90094C69.0718 6.28082 69.5112 5.80231 70.0874 5.46539C70.6636 5.1236 71.3472 4.9527 72.1382 4.9527C73.2515 4.9527 74.1304 5.29938 74.7749 5.99274C75.4194 6.68121 75.7417 7.64313 75.7417 8.87848V9.83795H70.8345C70.9224 10.2823 71.1152 10.6314 71.4131 10.8853C71.7109 11.1392 72.0967 11.2662 72.5703 11.2662C73.3516 11.2662 73.9619 10.9927 74.4014 10.4459L75.5293 11.7789C75.2217 12.2037 74.7847 12.543 74.2183 12.7969C73.6567 13.046 73.0513 13.1705 72.4019 13.1705ZM72.1235 6.85699C71.4009 6.85699 70.9712 7.33551 70.8345 8.29254H73.3247V8.10211C73.3345 7.7066 73.2344 7.40143 73.0244 7.18658C72.8145 6.96686 72.5142 6.85699 72.1235 6.85699Z" fill="white"/>
<path fill-rule="evenodd" clip-rule="evenodd" d="M4.91205 8.25599C6.82075 8.25599 8.36805 6.70869 8.36805 4.79999C8.36805 2.8913 6.82075 1.34399 4.91205 1.34399C3.00336 1.34399 1.45605 2.8913 1.45605 4.79999C1.45605 6.70869 3.00336 8.25599 4.91205 8.25599Z" stroke="#2178FF" stroke-width="2.16"/>
</svg>
