<svg width="996" height="682" viewBox="0 0 996 682" fill="none" xmlns="http://www.w3.org/2000/svg">
<path fill-rule="evenodd" clip-rule="evenodd" d="M37.422 72.6725C37.0896 73.9564 37.0662 75.3392 37.4282 76.7127C37.4663 76.8567 37.5178 76.9947 37.5621 77.1351L-52.2747 117.288L-219.559 -2.65715C-219.36 -2.99608 -219.195 -3.3534 -219.048 -3.71904L37.422 72.6725ZM262.613 244.929C262.425 246.025 262.455 247.175 262.755 248.32C262.952 249.065 263.254 249.755 263.629 250.386L129.713 348.296L44.5144 191.241C45.9991 190.251 47.098 188.8 47.6572 187.139L262.613 244.929ZM247.441 354.794C246.49 354.688 245.506 354.745 244.524 355.003C240.251 356.128 237.699 360.505 238.824 364.778C239.11 365.864 239.608 366.837 240.258 367.668L180.853 428.809C180.647 428.652 180.435 428.505 180.216 428.37L267.593 253.731C267.782 253.805 267.973 253.871 268.167 253.93L247.441 354.794ZM511.793 313.286C512.509 315.802 514.356 317.696 516.636 318.567L483.505 437.552C482.389 437.35 481.214 437.373 480.044 437.682C477.443 438.368 475.487 440.26 474.602 442.596L254.214 365.053C254.562 363.906 254.66 362.671 254.451 361.426L511.793 313.286ZM581.941 213.584L531.545 329.65L524.229 317.533C526.789 315.643 528.08 312.324 527.221 309.06C526.752 307.278 525.712 305.803 524.357 304.762L581.941 213.584ZM742.08 281.307C741.516 282.806 741.391 284.486 741.828 286.151C742.072 287.075 742.472 287.91 742.985 288.651L685.043 337.079L591.769 211.037C592.363 210.504 592.873 209.89 593.283 209.213L742.08 281.307ZM845.488 336.302C844.822 337.875 844.648 339.667 845.116 341.446C845.416 342.584 845.952 343.596 846.65 344.452L758.963 425.032C757.639 423.836 755.934 423.102 754.12 422.984L750.523 292.049C750.882 292.005 751.243 291.946 751.604 291.852C753.585 291.33 755.188 290.106 756.234 288.52L845.488 336.302ZM1146.05 245.108C1146.71 245.586 1147.43 245.959 1148.21 246.221L1109.79 364.509L1062.04 346.604C1062.36 345.33 1062.39 343.959 1062.02 342.597C1061.68 341.256 1061 340.086 1060.11 339.145L1146.05 245.108ZM1364.74 340.83C1363.69 341.383 1362.8 342.154 1362.1 343.073L1293.95 308.713L1314.85 237.06C1315.87 237.205 1316.95 237.153 1318.01 236.874C1318.46 236.754 1318.89 236.593 1319.3 236.405L1364.74 340.83ZM1348.51 460.338C1347.65 460.275 1346.76 460.343 1345.89 460.573C1343.89 461.098 1342.28 462.331 1341.24 463.926L1289.51 436.44L1363.11 353.842C1363.96 354.605 1364.96 355.177 1366.05 355.523L1348.51 460.338ZM1179.05 562.142C1178.83 561.816 1178.59 561.506 1178.33 561.221L1288.5 437.575L1340.55 465.23C1339.89 466.797 1339.72 468.58 1340.18 470.349C1340.29 470.772 1340.44 471.172 1340.62 471.559L1179.05 562.142ZM950.265 493.62C950.406 493.321 950.524 493.013 950.627 492.7L1053.12 515.942C1052.98 516.941 1053.04 517.984 1053.31 519.02C1054.06 521.877 1056.27 523.957 1058.92 524.691L1054.84 547.633C1053.96 547.559 1053.04 547.622 1052.13 547.862C1050.26 548.353 1048.73 549.468 1047.68 550.923L950.265 493.62ZM791.593 719.836C790.205 719.1 788.601 718.769 786.964 718.953L760.269 589.542C764.363 588.295 766.775 584.033 765.675 579.86C765.6 579.572 765.508 579.294 765.403 579.023L936.215 494.414C936.704 495.212 937.328 495.899 938.044 496.467L791.593 719.836ZM474.439 629.699L669.57 597.312L781.958 721.489C781.322 722.182 780.818 722.983 780.458 723.851L474.439 629.699ZM257.374 774.793L202.527 706.101L322.299 638.267C322.926 639.167 323.724 639.92 324.637 640.489L257.374 774.793ZM255.982 775.416L85.6949 775.198C85.6552 774.762 85.5875 774.327 85.4727 773.889C85.3578 773.454 85.202 773.044 85.0252 772.647L201.225 706.838L255.982 775.416ZM27.3852 886.309C26.6666 885.116 25.6607 884.149 24.4815 883.479L71.0412 780.302C72.875 783.107 76.3538 784.564 79.7729 783.665C83.1094 782.785 85.3877 779.921 85.6929 776.676L254.294 776.891L27.3852 886.309ZM-118.712 728.401C-118.566 727.374 -118.616 726.302 -118.897 725.236C-119.364 723.465 -120.394 721.995 -121.741 720.955L-49.4916 607.345L72.3693 769.996C71.3567 770.916 70.5949 772.076 70.1581 773.363L-118.712 728.401ZM-57.7437 600.121C-56.9655 599.916 -56.2468 599.601 -55.5942 599.2L-50.4397 606.081L-119.807 715.161L-62.6542 599.842C-61.1384 600.428 -59.4338 600.565 -57.7437 600.121ZM-41.6987 416.154C-43.6102 414.33 -46.3756 413.494 -49.118 414.164L-83.2782 327.361L-41.6987 416.154ZM-76.5264 216.887C-75.689 216.666 -74.9198 216.318 -74.229 215.872L-41.321 257.82L-86.9575 299.698C-87.997 298.766 -89.2691 298.122 -90.643 297.829L-78.973 217.14C-78.17 217.181 -77.3465 217.103 -76.5264 216.887ZM-210.458 187.989C-211.81 185.587 -214.312 184.046 -217.049 183.917L-225.364 1.22137C-225.051 1.1771 -224.738 1.12077 -224.426 1.03837C-222.808 0.613185 -221.439 -0.281483 -220.421 -1.45733L-53.8362 117.986L-210.458 187.989ZM33.2503 180.428C32.6343 181.438 32.2455 182.582 32.1236 183.781L-209.489 190.937C-209.534 190.584 -209.593 190.229 -209.686 189.874C-209.735 189.691 -209.797 189.515 -209.856 189.337L-52.4463 118.982L33.2503 180.428ZM73.1719 389.636C71.6073 387.869 69.3099 386.849 66.8907 386.939L41.7006 192.416C41.8379 192.387 41.9768 192.366 42.1147 192.329C42.4966 192.229 42.861 192.093 43.2143 191.942L128.51 349.176L73.1719 389.636ZM171.548 428.511C170.345 429.317 169.395 430.425 168.781 431.703L74.9045 396.999C75.2551 395.697 75.2874 394.29 74.9189 392.893C74.7225 392.148 74.4228 391.458 74.0459 390.827L129.221 350.486L171.548 428.511ZM242.457 369.604L214.298 440.538L183.986 434.983C183.973 434.366 183.895 433.742 183.732 433.12C183.396 431.844 182.765 430.727 181.939 429.81L241.273 368.744C241.641 369.068 242.037 369.354 242.457 369.604ZM474.09 445.638L289.359 452.554C289.315 452.221 289.257 451.887 289.17 451.553C288.043 447.279 283.668 444.727 279.394 445.854L279.215 445.91L249.54 370.161C251.364 369.431 252.795 368.081 253.656 366.423L474.21 444.025C474.116 444.552 474.074 445.092 474.09 445.638ZM581.067 414.543C578.788 416.225 577.522 419.041 577.879 421.944L489.835 443.458L489.82 443.382C489.238 441.174 487.784 439.432 485.93 438.413L531.759 332.863L581.067 414.543ZM585.678 213.034L585.098 413.016C584.658 413.057 584.217 413.125 583.776 413.241C583.268 413.375 582.786 413.557 582.329 413.778L532.481 331.201L583.945 212.674C584.503 212.858 585.084 212.977 585.678 213.034ZM591.447 415.306C590.145 414.016 588.424 413.199 586.575 413.021L587.156 213.038C587.595 212.997 588.036 212.93 588.477 212.813C589.238 212.614 589.942 212.305 590.582 211.917L683.908 338.028L591.447 415.306ZM748.27 425.004C746.908 426.224 745.996 427.882 745.704 429.695L593.674 419.522C593.638 419.329 593.602 419.135 593.55 418.941C593.308 418.017 592.906 417.182 592.394 416.441L684.788 339.219L748.27 425.004ZM849.651 346.733L809.895 447.799L761.419 432.636C761.674 431.447 761.669 430.183 761.337 428.926C761.061 427.875 760.586 426.931 759.967 426.117L847.683 345.508C848.276 346.011 848.94 346.423 849.651 346.733ZM1046.55 346.671C1046.95 348.16 1047.73 349.432 1048.78 350.421L977.177 444.241L859.632 343.645C860.277 342.611 860.685 341.436 860.808 340.201L1046.3 345.001C1046.33 345.556 1046.41 346.115 1046.55 346.671ZM1109.33 365.915L1062.81 509.182C1062.37 509.082 1061.92 509.018 1061.48 508.994L1055.3 352.564C1055.65 352.52 1055.99 352.462 1056.33 352.371C1058.73 351.74 1060.58 350.083 1061.55 347.996L1109.33 365.915ZM1152.8 246.377C1153.7 246.141 1154.51 245.755 1155.24 245.262L1255.54 415.229C1254.46 416.012 1253.6 417.043 1253.02 418.223L1111.18 365.028L1149.65 246.565C1150.67 246.709 1151.73 246.658 1152.8 246.377ZM1261.74 413.862C1260.59 413.64 1259.39 413.656 1258.18 413.973C1257.7 414.101 1257.25 414.273 1256.81 414.478L1156.39 244.313C1157.1 243.607 1157.67 242.775 1158.07 241.864L1292.18 309.478L1261.74 413.862ZM1360.74 349.941C1360.83 350.314 1360.97 350.671 1361.12 351.018L1266.35 416.575C1265.49 415.551 1264.39 414.765 1263.16 414.278L1293.53 310.155L1361.32 344.333C1360.48 346.01 1360.22 347.985 1360.74 349.941ZM1267.6 424.793C1268.25 423.226 1268.43 421.443 1267.96 419.673C1267.79 418.998 1267.52 418.372 1267.19 417.79L1361.82 352.33C1361.92 352.473 1362.01 352.617 1362.11 352.752L1288.17 435.726L1267.6 424.793ZM1256.73 428.904C1258.4 429.71 1260.33 429.955 1262.25 429.447C1264.24 428.923 1265.85 427.691 1266.9 426.097L1287.16 436.863L1177.26 560.196L1256.73 428.904ZM1061.91 553.561C1061.75 552.965 1061.53 552.405 1061.25 551.881L1092.28 531.721L1164.89 564.108C1164.78 564.463 1164.68 564.829 1164.62 565.2L1062.17 555.606C1062.16 554.932 1062.09 554.246 1061.91 553.561ZM1063.08 524.72C1065.27 524.146 1066.99 522.723 1068.02 520.9L1090.67 531.003L1060.45 550.639C1059.39 549.301 1057.93 548.343 1056.3 547.892L1060.38 524.949C1061.27 525.024 1062.17 524.959 1063.08 524.72ZM950.763 488.18C950.359 486.644 949.53 485.336 948.441 484.336L977.408 446.379L1054.51 512.365C1054.06 513.019 1053.7 513.739 1053.44 514.502L950.957 491.261C951.088 490.259 951.036 489.218 950.763 488.18ZM761.539 574.761L810.766 449.619L935.208 488.543C934.952 489.734 934.957 490.997 935.288 492.255C935.364 492.542 935.456 492.82 935.56 493.091L764.75 577.7C763.964 576.425 762.841 575.419 761.539 574.761ZM612.321 531.859C612.893 531.236 613.365 530.53 613.714 529.764L750.21 579.848C749.985 580.69 749.896 581.574 749.962 582.474L670.124 595.724L612.321 531.859ZM600.357 531.648C602.29 533.904 605.403 534.997 608.469 534.189C609.499 533.918 610.426 533.454 611.229 532.852L668.391 596.011L471 628.772C470.821 628.284 470.6 627.825 470.339 627.394L600.357 531.648ZM336.599 631.665C336.219 630.222 335.463 628.982 334.47 628.007L389.706 560.444L457.281 626.486C456.268 627.736 455.641 629.276 455.518 630.911L336.806 632.834C336.763 632.445 336.703 632.055 336.599 631.665ZM177.215 674.4L321.348 636.444C321.415 636.628 321.494 636.806 321.572 636.98L201.593 704.932L177.215 674.4ZM83.6849 770.584L163.402 682.414C165.29 683.824 167.775 684.397 170.231 683.749C174.009 682.754 176.436 679.219 176.172 675.46L200.291 705.669L84.2972 771.361C84.1077 771.088 83.9044 770.829 83.6849 770.584ZM3.00928 524.787C4.52282 525.564 6.28607 525.866 8.0617 525.546L74.9612 768.025L74.7415 768.514C74.3228 768.681 73.9251 768.879 73.5501 769.109L-48.6446 606.013L3.00928 524.787ZM-52.0429 590.345C-52.3922 589.018 -53.0567 587.856 -53.9345 586.918L1.1037 525.03L-49.5927 604.749L-54.4144 598.312C-52.2718 596.37 -51.2565 593.334 -52.0429 590.345ZM-48.3148 429.858L-54.551 512.89L-125.598 508.196C-125.613 507.591 -125.691 506.98 -125.852 506.37C-126.159 505.202 -126.716 504.168 -127.441 503.297L-52.3269 428.085C-51.1869 429.028 -49.8001 429.653 -48.3148 429.858ZM-85.8673 310.4L59.8667 391.696C59.1583 393.299 58.9622 395.142 59.4439 396.969C59.9897 399.042 61.3049 400.705 62.9985 401.743L9.515 510.21C8.00286 509.629 6.30412 509.494 4.62008 509.937C4.39032 509.998 4.16763 510.071 3.94861 510.15L-88.5166 312.691C-87.4564 312.124 -86.5573 311.336 -85.8673 310.4ZM168.256 437.195C168.327 437.465 168.412 437.727 168.508 437.983L115.698 463.717L72.3193 401.055C73.1969 400.317 73.9041 399.407 74.3936 398.385L168.269 433.089C167.92 434.392 167.889 435.798 168.256 437.195ZM213.742 441.937L174.943 539.677C174.239 539.469 173.503 539.359 172.752 539.354L176.856 443.103C177.247 443.06 177.639 442.998 178.031 442.895C181.176 442.067 183.381 439.477 183.882 436.466L213.742 441.937ZM583.168 428.53L548.032 487.7L488.95 449.518C489.759 448.161 490.171 446.564 490.067 444.923L578.194 423.387C578.976 425.866 580.863 427.72 583.168 428.53ZM614.169 524.414C613.999 523.766 613.746 523.164 613.438 522.603L662.165 491.051L751.683 576.921C751.305 577.398 750.979 577.912 750.717 578.461L614.2 528.368C614.513 527.109 614.523 525.757 614.169 524.414ZM468.192 625.049L548.52 489.772L599.399 522.652C598.466 524.377 598.156 526.443 598.693 528.489C598.879 529.191 599.159 529.841 599.503 530.44L469.462 626.205C469.078 625.775 468.654 625.384 468.192 625.049ZM390.645 559.295L478.079 452.346C478.907 452.825 479.822 453.152 480.779 453.31L463.556 623.526C462.86 623.52 462.155 623.597 461.451 623.782C460.253 624.098 459.197 624.676 458.313 625.429L390.645 559.295ZM327.548 625.812L284.174 461.103C285.086 460.772 285.901 460.284 286.608 459.683L388.646 559.407L333.328 627.072C331.676 625.96 329.624 625.463 327.548 625.812ZM9.48813 525.159C10.3612 524.83 11.1424 524.353 11.8245 523.774L132.576 642.134L80.2297 768.33C79.0549 767.942 77.7794 767.819 76.4931 768.022L9.48813 525.159ZM273.694 455.629C273.945 456.584 274.367 457.448 274.907 458.209L177.934 541.302C177.441 540.876 176.896 540.517 176.317 540.224L215.225 442.209L273.469 452.882C273.389 453.781 273.451 454.707 273.694 455.629ZM287.64 458.625C288.687 457.331 289.326 455.729 289.419 454.03L474.271 447.11C474.296 447.226 474.314 447.341 474.345 447.457C474.774 449.089 475.681 450.468 476.871 451.489L389.584 558.259L287.64 458.625ZM169.21 668.079L173.153 555.336C173.677 555.306 174.204 555.224 174.731 555.085C176.828 554.533 178.508 553.195 179.545 551.472L219.463 573.681L171.146 668.585C170.528 668.338 169.879 668.165 169.21 668.079ZM170.326 554.982C170.748 555.115 171.182 555.217 171.626 555.277L169.267 623.553L167.731 668.025C167.207 668.054 166.681 668.136 166.156 668.274C164.962 668.59 163.908 669.164 163.026 669.914L134.322 641.778L170.326 554.982ZM12.8575 522.719C13.553 521.863 14.0674 520.871 14.3626 519.803L164.726 546.674C164.652 547.561 164.716 548.475 164.956 549.385C165.549 551.639 167.052 553.406 168.962 554.416L133.186 640.664L12.8575 522.719ZM164.988 545.22L14.6227 518.349C14.6977 517.462 14.6333 516.548 14.3943 515.637C14.3229 515.368 14.238 515.105 14.1427 514.849L115.205 465.601L167.556 541.223C166.313 542.267 165.418 543.664 164.988 545.22ZM180.431 545.311C180.178 544.346 179.75 543.476 179.204 542.709L275.886 459.348C276.278 459.724 276.705 460.059 277.162 460.348L220.133 572.364L180.186 550.139C180.745 548.644 180.868 546.97 180.431 545.311ZM82.5982 769.581C82.2765 769.336 81.9382 769.114 81.5848 768.921L133.712 643.249L161.992 670.968C160.437 672.883 159.78 675.481 160.456 678.05C160.799 679.356 161.448 680.497 162.304 681.426L82.5982 769.581ZM326.119 626.187C324.504 626.775 323.181 627.845 322.265 629.186L221.425 573.082L278.48 461.019C279.799 461.544 281.266 461.729 282.745 461.48L326.119 626.187ZM547.278 488.97L466.92 624.295C466.319 624.011 465.683 623.805 465.025 623.676L480.747 468.312L482.254 453.412C482.872 453.398 483.496 453.321 484.119 453.156C485.713 452.737 487.066 451.865 488.08 450.716L547.278 488.97ZM587.852 428.716C588.503 428.544 589.108 428.289 589.671 427.979L604.408 518.711L604.394 518.714C602.682 519.166 601.253 520.143 600.22 521.422L549.274 488.502L584.667 428.899C585.7 429.049 586.778 428.999 587.852 428.716ZM747.315 435.914C748.714 437.688 750.817 438.8 753.091 438.945L756.149 545.394L756.972 573.963C756.615 574.007 756.258 574.065 755.901 574.161C754.677 574.482 753.602 575.078 752.705 575.855L663.439 490.226L747.315 435.914ZM605.867 518.474L591.018 427.046C591.807 426.368 592.452 425.547 592.923 424.63L661.07 490.001L612.612 521.38C610.991 519.407 608.486 518.285 605.867 518.474ZM745.862 433.001C746.019 433.595 746.243 434.15 746.516 434.671L662.345 489.175L593.509 423.146C593.702 422.459 593.805 421.742 593.808 421.011L745.608 431.17C745.623 431.776 745.702 432.39 745.862 433.001ZM175.375 443.129L171.267 539.481C171.064 539.518 170.86 539.556 170.656 539.611C169.981 539.788 169.352 540.056 168.77 540.383L116.548 464.947L169.158 439.311C170.494 441.512 172.821 442.93 175.375 443.129ZM69.2191 402.668C69.8942 402.49 70.5224 402.222 71.1037 401.895L114.354 464.372L13.4926 513.522C12.8247 512.422 11.9085 511.519 10.8398 510.862L64.3232 402.396C65.8354 402.976 67.5331 403.112 69.2191 402.668ZM-46.8398 429.924C-46.2905 429.896 -45.7375 429.815 -45.185 429.67C-44.6469 429.528 -44.137 429.333 -43.6563 429.096L2.13091 511.086C0.322899 512.328 -0.896957 514.261 -1.24088 516.412L-53.0772 512.987L-46.8398 429.924ZM-58.4477 584.499L-53.1882 514.46L-1.33597 517.887C-1.32012 518.492 -1.24155 519.103 -1.08176 519.714C-0.731435 521.04 -0.0668982 522.202 0.809916 523.139L-55.041 585.941C-56.0411 585.205 -57.2083 584.709 -58.4477 584.499ZM-125.691 509.671L-54.662 514.363L-59.9207 584.39C-60.5481 584.402 -61.1839 584.478 -61.8181 584.645C-62.8078 584.907 -63.6996 585.346 -64.4812 585.915L-127.78 513.899C-126.682 512.736 -125.946 511.263 -125.691 509.671ZM175.706 673.27C175.083 671.557 173.919 670.174 172.462 669.255L220.755 574.399L321.545 630.477C320.931 631.864 320.706 633.433 320.973 635.016L175.706 673.27ZM809.354 449.178L760.164 574.22C759.608 574.058 759.034 573.954 758.448 573.916L754.566 438.899C754.923 438.855 755.281 438.796 755.638 438.701C758.142 438.041 760.047 436.263 760.976 434.045L809.354 449.178ZM854.891 347.145C855.556 346.971 856.175 346.708 856.749 346.388L938.325 483.749C937.131 484.618 936.212 485.795 935.65 487.136L811.308 448.242L851.055 347.201C852.28 347.486 853.589 347.488 854.891 347.145ZM976.283 445.417L947.267 483.443C945.459 482.312 943.212 481.894 940.987 482.48C940.499 482.609 940.035 482.785 939.595 482.994L857.971 345.55C858.242 345.323 858.498 345.081 858.735 344.823L976.283 445.417ZM1053.82 352.619L1060 509.058C1059.66 509.102 1059.34 509.159 1059.01 509.245C1057.63 509.609 1056.43 510.315 1055.47 511.243L978.303 445.201L1049.93 351.336C1051.09 352.084 1052.43 352.539 1053.82 352.619ZM1252.49 423.748C1252.55 423.999 1252.63 424.243 1252.72 424.481L1067.91 512.881C1067.04 511.418 1065.73 510.297 1064.21 509.64L1110.72 366.434L1252.51 419.607C1252.14 420.918 1252.11 422.338 1252.49 423.748ZM1068.79 514.945C1068.72 514.695 1068.64 514.451 1068.55 514.212L1250.31 427.273L1092.14 530.042L1068.63 519.552C1069.11 518.114 1069.2 516.524 1068.79 514.945ZM1170.44 558.941C1168.25 559.514 1166.53 560.937 1165.5 562.76L1093.76 530.76L1253.95 426.669C1254.39 427.229 1254.9 427.722 1255.47 428.141L1175.96 559.485C1174.3 558.678 1172.36 558.434 1170.44 558.941ZM248.118 370.579L277.838 446.443C275.799 447.465 274.335 449.3 273.735 451.429L215.781 440.809L243.793 370.242C245.138 370.741 246.625 370.877 248.118 370.579ZM34.4637 190.284C35.9775 191.774 38.0509 192.628 40.2323 192.585L65.4266 387.133C65.3329 387.154 65.2387 387.169 65.1437 387.193C64.3053 387.414 63.5371 387.763 62.8464 388.208L-39.3146 257.985L34.4637 190.284ZM-73.0658 214.963C-71.275 213.266 -70.3288 210.787 -70.6238 208.239L32.3393 186.631C32.5839 187.563 32.9921 188.406 33.5112 189.153L-40.2285 256.818L-73.0658 214.963ZM-70.9287 206.793C-72.1853 202.715 -76.4383 200.316 -80.6019 201.412C-83.6033 202.203 -85.7497 204.599 -86.3741 207.435L-207.777 192.365L31.6183 185.273L-70.9287 206.793ZM-84.5627 303.613C-84.8414 302.553 -85.3231 301.599 -85.9505 300.78L-40.4051 258.986L61.6831 389.118C61.2698 389.509 60.9076 389.943 60.5894 390.408L-85.1032 309.135C-84.3004 307.474 -84.0565 305.535 -84.5627 303.613ZM-39.2409 421.402L-2.7883 499.248L-42.4008 428.316C-40.2798 426.712 -39.0579 424.119 -39.2409 421.402ZM785.516 719.252C784.605 719.53 783.776 719.953 783.051 720.496L671.301 597.025L750.2 583.93L750.201 583.935C751.225 587.824 754.942 590.277 758.823 589.841L785.516 719.252ZM1307.99 229.614C1308.02 230.13 1308.1 230.653 1308.24 231.173C1308.95 233.87 1310.95 235.879 1313.41 236.713L1292.61 308.036L1158.55 240.45C1158.73 239.712 1158.79 238.943 1158.74 238.163L1307.99 229.614ZM749.046 292.094L752.643 423.028C752.283 423.072 751.923 423.132 751.562 423.226C750.801 423.428 750.097 423.734 749.456 424.123L685.923 338.27L743.933 289.786C745.292 291.133 747.105 291.969 749.046 292.094ZM521.521 318.835C522.028 318.7 522.509 318.517 522.967 318.298L530.822 331.311L485.658 435.326L518.06 318.963C519.176 319.166 520.351 319.142 521.521 318.835ZM266.272 253.071L178.895 427.708C177.372 427.115 175.657 426.972 173.956 427.421C173.57 427.521 173.204 427.659 172.848 427.809L130.425 349.607L264.503 251.578C265.021 252.161 265.616 252.663 266.272 253.071ZM44.4481 82.6358L39.563 176.609C39.0565 176.642 38.5468 176.72 38.0382 176.854C36.4717 177.266 35.1379 178.119 34.1301 179.242L-50.8848 118.285L38.1427 78.4939C39.4243 80.852 41.8084 82.3971 44.4481 82.6358ZM-228.5 -14.4366C-232.774 -13.3109 -235.327 -8.93535 -234.201 -4.66143C-233.289 -1.1973 -230.239 1.13513 -226.84 1.29463L-218.524 183.991C-218.835 184.035 -219.149 184.091 -219.462 184.174C-223.735 185.298 -226.286 189.676 -225.161 193.949C-224.037 198.222 -219.659 200.775 -215.386 199.65C-212.385 198.859 -210.238 196.461 -209.613 193.626L-86.5589 208.902C-86.5814 209.654 -86.5037 210.421 -86.3017 211.187C-85.5254 214.135 -83.203 216.261 -80.4359 216.929L-92.1105 297.656C-92.8441 297.639 -93.5924 297.717 -94.3378 297.912C-98.6118 299.039 -101.163 303.413 -100.038 307.687C-98.9208 311.929 -94.6006 314.471 -90.357 313.407L-50.5141 414.647C-54.0137 416.225 -55.9702 420.135 -54.9603 423.97C-54.6529 425.136 -54.0967 426.171 -53.3726 427.041L-128.487 502.255C-130.406 500.665 -133.033 499.988 -135.627 500.67C-139.9 501.796 -142.452 506.172 -141.326 510.446C-140.202 514.719 -135.825 517.27 -131.552 516.147C-130.561 515.885 -129.669 515.443 -128.889 514.876L-65.59 586.891C-67.423 588.835 -68.2482 591.646 -67.5179 594.42C-66.9737 596.487 -65.6634 598.148 -63.9768 599.188L-123.761 719.814C-125.277 719.229 -126.981 719.09 -128.673 719.536C-132.946 720.662 -135.498 725.038 -134.373 729.311C-133.247 733.585 -128.871 736.137 -124.597 735.011C-121.9 734.301 -119.892 732.295 -119.058 729.838L69.8121 774.799C69.6651 775.825 69.7164 776.899 69.9977 777.965C70.054 778.177 70.1239 778.383 70.1958 778.586L23.1358 882.869C21.6891 882.369 20.0856 882.277 18.4945 882.696C14.2206 883.822 11.6692 888.198 12.7948 892.471C13.9195 896.744 18.2971 899.296 22.569 898.171C26.8429 897.046 29.3954 892.67 28.2698 888.396C28.2007 888.137 28.1211 887.884 28.029 887.638L257.308 777.077L257.661 777.521L258.065 776.714L260.742 775.422L258.713 775.419L325.958 641.149C327.481 641.744 329.196 641.887 330.9 641.439C334.284 640.548 336.58 637.615 336.833 634.311L455.544 632.388C455.587 632.778 455.648 633.168 455.751 633.558C456.877 637.831 461.253 640.383 465.526 639.259C469.524 638.205 472.015 634.306 471.397 630.308L780.023 725.261C779.775 726.441 779.783 727.691 780.111 728.934C781.235 733.207 785.612 735.759 789.885 734.634C794.159 733.509 796.711 729.132 795.585 724.859C795.128 723.126 794.132 721.682 792.829 720.645L939.28 497.278C940.995 498.188 943.038 498.489 945.064 497.954C946.933 497.463 948.472 496.349 949.518 494.894L1046.94 552.198C1046.16 553.839 1045.94 555.748 1046.44 557.637C1047.56 561.911 1051.93 564.462 1056.21 563.337C1059.3 562.525 1061.48 560.015 1062.03 557.078L1164.48 566.672C1164.48 567.346 1164.56 568.032 1164.73 568.716C1165.86 572.989 1170.24 575.541 1174.51 574.416C1178.79 573.29 1181.34 568.914 1180.21 564.641C1180.1 564.219 1179.95 563.818 1179.78 563.431L1341.34 472.849C1343.2 475.547 1346.61 476.931 1349.96 476.05C1354.24 474.925 1356.79 470.548 1355.66 466.274C1354.9 463.389 1352.65 461.294 1349.97 460.581L1367.5 355.841C1368.48 355.961 1369.49 355.907 1370.52 355.642C1374.78 354.516 1377.34 350.139 1376.21 345.865C1375.09 341.592 1370.71 339.041 1366.44 340.165C1366.32 340.195 1366.22 340.235 1366.12 340.268L1320.59 235.665C1323.24 233.793 1324.59 230.418 1323.72 227.098C1322.58 222.825 1318.21 220.272 1313.94 221.397C1310.68 222.253 1308.44 224.991 1308.04 228.131L1158.52 236.697L1158.5 236.603C1157.37 232.33 1153 229.777 1148.73 230.903C1144.45 232.028 1141.9 236.404 1143.02 240.677C1143.38 242.021 1144.05 243.192 1144.94 244.135L1059.01 338.172C1057.13 336.803 1054.68 336.259 1052.25 336.897C1049.04 337.743 1046.8 340.428 1046.36 343.526L860.817 338.722C860.779 338.272 860.71 337.821 860.591 337.371C859.465 333.097 855.089 330.544 850.815 331.67C848.835 332.192 847.231 333.416 846.186 335.001L756.932 287.219C757.597 285.647 757.771 283.855 757.303 282.076C756.179 277.803 751.801 275.252 747.528 276.376C745.436 276.928 743.761 278.261 742.722 279.978L593.926 207.884C594.489 206.384 594.615 204.705 594.176 203.039C593.051 198.765 588.674 196.213 584.402 197.339C580.128 198.464 577.576 202.841 578.701 207.115C579.17 208.895 580.209 210.37 581.565 211.412L523.106 303.974C521.418 303.113 519.423 302.838 517.445 303.358C513.606 304.371 511.165 308.006 511.524 311.834L254.164 359.976L254.299 360.7C253.565 357.919 251.45 355.875 248.887 355.092L269.615 254.229C270.566 254.334 271.55 254.278 272.532 254.02C276.805 252.895 279.356 248.518 278.231 244.244C277.107 239.972 272.729 237.42 268.456 238.545C265.84 239.234 263.874 241.144 262.997 243.503L48.0004 185.701C48.1449 184.68 48.0932 183.614 47.8134 182.554C46.954 179.29 44.1974 177.037 41.0396 176.652L45.9281 82.631C46.352 82.5905 46.7776 82.524 47.2034 82.4125C51.4764 81.2858 54.0279 76.9101 52.9042 72.6373C51.7786 68.3634 47.4019 65.8119 43.1281 66.9365C40.7414 67.5655 38.8942 69.2088 37.9234 71.2801L-218.625 -5.13502C-218.392 -6.29356 -218.405 -7.51752 -218.726 -8.73683C-219.852 -13.0098 -224.228 -15.5633 -228.5 -14.4366Z" fill="black"/>
</svg>
