<svg width="754" height="1170" viewBox="0 0 754 1170" fill="none" xmlns="http://www.w3.org/2000/svg">
<path fill-rule="evenodd" clip-rule="evenodd" d="M82.2129 356.442C83.1255 355.479 84.2858 354.727 85.6425 354.306C85.7848 354.262 85.9291 354.233 86.0716 354.196L72.5171 256.732L-117.85 178.428C-118.031 178.776 -118.247 179.106 -118.479 179.424L82.2129 356.442ZM347.627 456.132C348.458 455.392 349.449 454.808 350.579 454.456C351.315 454.228 352.06 454.118 352.794 454.103L364.862 288.651L186.523 299.625C186.47 301.408 185.822 303.109 184.71 304.463L347.627 456.132ZM432.758 385.046C432.165 384.296 431.691 383.431 431.39 382.462C430.08 378.242 432.439 373.758 436.66 372.448C437.732 372.115 438.82 372.022 439.87 372.133L460.241 289.354C459.999 289.263 459.761 289.161 459.53 289.047L357.731 455.691C357.894 455.813 358.051 455.939 358.204 456.073L432.758 385.046ZM537.643 631.226C540.156 630.5 542.741 631.062 544.688 632.534L628.037 541.385C627.274 540.546 626.67 539.537 626.313 538.381C625.516 535.812 626.083 533.15 627.596 531.162L445.048 385.353C444.259 386.256 443.264 386.994 442.098 387.477L537.643 631.226ZM490.264 743.548L561.987 639.304L547.835 639.521C547.589 642.694 545.458 645.547 542.235 646.548C540.475 647.095 538.673 646.995 537.072 646.397L490.264 743.548ZM632.557 843.466C633.529 842.193 634.887 841.197 636.532 840.686C637.444 840.403 638.364 840.3 639.264 840.342L649.629 765.541L493.311 753.232C493.175 754.019 492.924 754.777 492.567 755.483L632.557 843.466ZM733.993 902.018C734.974 900.62 736.402 899.522 738.158 898.977C739.282 898.629 740.424 898.547 741.521 898.684L763.389 781.621C761.673 781.132 760.147 780.075 759.086 778.6L646.141 844.934C646.294 845.262 646.435 845.599 646.546 845.955C647.154 847.911 646.965 849.92 646.174 851.647L733.993 902.018ZM815.93 1205.23C816.683 1205.54 817.384 1205.96 818.016 1206.47L897.974 1111.21L857.487 1080.21C856.576 1081.16 855.427 1081.9 854.078 1082.32C852.757 1082.73 851.404 1082.77 850.136 1082.52L815.93 1205.23ZM1013 1339.97C1012.91 1338.79 1013.09 1337.62 1013.5 1336.54L948.246 1296.96L898.556 1352.65C899.22 1353.44 899.747 1354.38 900.073 1355.43C900.21 1355.88 900.302 1356.33 900.357 1356.77L1013 1339.97ZM1105.74 1262.88C1105.23 1262.18 1104.82 1261.39 1104.55 1260.53C1103.94 1258.56 1104.13 1256.54 1104.93 1254.81L1054.21 1225.51L1023.17 1331.69C1024.26 1332.01 1025.28 1332.56 1026.15 1333.3L1105.74 1262.88ZM1102.28 1065.22C1101.88 1065.2 1101.49 1065.16 1101.11 1065.09L1054.64 1224.05L1105.67 1253.53C1106.65 1252.14 1108.08 1251.06 1109.82 1250.51C1110.24 1250.38 1110.66 1250.29 1111.08 1250.24L1102.28 1065.22ZM922.929 907.508C922.751 907.787 922.552 908.049 922.341 908.303L996.365 982.906C997.138 982.257 998.053 981.754 999.074 981.432C1001.89 980.556 1004.83 981.328 1006.86 983.191L1024.15 967.574C1023.62 966.861 1023.19 966.05 1022.91 965.152C1022.34 963.307 1022.47 961.417 1023.15 959.752L922.929 907.508ZM1030.69 653.071C1029.33 652.284 1028.2 651.098 1027.49 649.612L903.593 695.552C904.706 699.684 902.37 703.988 898.248 705.267C897.964 705.356 897.679 705.425 897.394 705.48L916.158 895.172C917.094 895.164 918.007 895.33 918.868 895.635L1030.69 653.071ZM786.182 431.874L862.12 614.517L1026.98 644.023C1027.24 643.116 1027.65 642.265 1028.19 641.5L786.182 431.874ZM794.202 170.905L706.882 160.793L712.826 298.312C713.922 298.366 714.983 298.645 715.949 299.117L794.202 170.905ZM793.992 169.393L703.569 25.0976C703.179 25.2949 702.773 25.4684 702.342 25.6026C701.912 25.7357 701.482 25.8208 701.051 25.8815L706.818 159.298L793.992 169.393ZM766.897 -83.2319C765.505 -83.209 764.151 -83.5494 762.958 -84.1944L700.132 9.96566C703.483 10.0345 706.562 12.2126 707.611 15.5889C708.633 18.8844 707.412 22.3342 704.821 24.3129L794.349 167.18L766.897 -83.2319ZM555.564 -123.451C554.771 -122.782 553.835 -122.257 552.781 -121.93C551.032 -121.388 549.24 -121.482 547.644 -122.073L489.584 -0.598515L692.096 16.5536C692.339 15.2076 692.92 13.9464 693.779 12.8942L555.564 -123.451ZM479.084 -3.76847C479.323 -2.99975 479.437 -2.22353 479.442 -1.45737L488.009 -0.732616L543.755 -117.363L476.245 -7.78483C477.546 -6.80997 478.565 -5.43714 479.084 -3.76847ZM331.574 107.326C329.015 106.672 326.84 104.769 325.955 102.089L234.24 119.118L331.574 107.326ZM144.13 183.386C144.387 184.213 144.499 185.05 144.487 185.872L197.499 191.551L208.831 130.657C207.489 130.269 206.269 129.531 205.292 128.522L143.048 181.177C143.509 181.836 143.879 182.576 144.13 183.386ZM48.6506 85.1191C45.8972 85.2457 43.2639 83.9402 41.7049 81.6873L-117.636 171.45C-117.508 171.739 -117.39 172.034 -117.295 172.342C-116.798 173.94 -116.831 175.575 -117.289 177.061L72.2814 255.038L48.6506 85.1191ZM171.384 295.802C171.914 294.744 172.678 293.809 173.631 293.07L51.6638 84.3786C51.3409 84.5279 51.0084 84.6657 50.6575 84.7748C50.4768 84.8306 50.295 84.8713 50.1127 84.9147L73.8629 255.689L171.384 295.802ZM369.958 218.794C367.63 218.404 365.548 216.996 364.342 214.897L186.028 296.616C186.077 296.748 186.132 296.877 186.174 297.013C186.291 297.39 186.369 297.771 186.429 298.151L364.97 287.164L369.958 218.794ZM455.057 281.621C455.103 280.173 455.539 278.781 456.298 277.583L377.12 216.362C376.202 217.349 375.026 218.122 373.646 218.55C372.909 218.778 372.166 218.89 371.431 218.904L366.458 287.073L455.057 281.621ZM442.677 372.971L487.91 311.502L467.136 288.739C466.607 289.055 466.036 289.32 465.422 289.512C464.162 289.903 462.881 289.96 461.666 289.745L441.32 372.423C441.79 372.564 442.243 372.748 442.677 372.971ZM629.905 529.115L537.877 368.789C537.571 368.929 537.257 369.056 536.928 369.16C532.707 370.469 528.223 368.111 526.914 363.889L526.867 363.708L446.903 378.683C447.251 380.617 446.864 382.546 445.914 384.154L628.6 530.072C628.997 529.713 629.433 529.391 629.905 529.115ZM660.223 636.315C660.442 633.491 662.159 630.926 664.81 629.689L636.4 543.623L636.327 543.65C634.146 544.327 631.898 544.018 630.051 542.985L564.825 637.784L660.223 636.315ZM491.778 747.009L661.065 640.542C660.866 640.148 660.691 639.738 660.555 639.303C660.399 638.8 660.298 638.295 660.244 637.791L563.799 639.276L490.554 745.73C491.006 746.105 491.415 746.535 491.778 747.009ZM666.371 644.713C664.587 644.292 662.982 643.267 661.851 641.793L492.564 748.26C492.762 748.654 492.939 749.064 493.074 749.499C493.308 750.251 493.419 751.011 493.429 751.76L649.833 764.075L666.371 644.713ZM757.699 772.568C758.012 770.766 758.935 769.114 760.318 767.905L671.126 644.368C670.943 644.439 670.76 644.512 670.568 644.571C669.657 644.855 668.736 644.957 667.835 644.915L651.308 764.191L757.699 772.568ZM745.045 900.021L809.687 812.749L771.139 779.674C770.266 780.521 769.191 781.186 767.95 781.571C766.912 781.894 765.859 781.991 764.841 781.898L742.963 899.001C743.704 899.238 744.405 899.582 745.045 900.021ZM849.334 1067.04C850.807 1066.58 852.301 1066.57 853.692 1066.93L895.315 956.498L747.715 910.122C747.181 911.216 746.4 912.185 745.418 912.944L847.784 1067.7C848.271 1067.44 848.788 1067.21 849.334 1067.04ZM898.923 1110.08L995.764 994.701C995.45 994.386 995.159 994.041 994.9 993.673L858.969 1071.33C859.114 1071.65 859.247 1071.97 859.349 1072.31C860.085 1074.68 859.66 1077.12 858.404 1079.05L898.923 1110.08ZM820.582 1210.28C820.858 1211.17 820.964 1212.07 820.931 1212.95L1018.22 1207.94C1018.31 1206.61 1018.73 1205.33 1019.43 1204.22L899.149 1112.11L819.071 1207.51C819.735 1208.3 820.257 1209.23 820.582 1210.28ZM1020.35 1213.92C1019.55 1213.06 1018.93 1212.03 1018.56 1210.84C1018.41 1210.37 1018.32 1209.89 1018.26 1209.42L820.735 1214.42C820.513 1215.4 820.109 1216.33 819.551 1217.15L947.958 1295.05L1020.35 1213.92ZM1018.6 1331.75C1018.97 1331.63 1019.34 1331.56 1019.71 1331.5L1025.09 1216.39C1023.77 1216.2 1022.52 1215.69 1021.45 1214.91L949.246 1295.84L1014.15 1335.21C1015.13 1333.61 1016.67 1332.35 1018.6 1331.75ZM1032.72 1213.1C1031.74 1214.48 1030.32 1215.57 1028.57 1216.11C1027.91 1216.32 1027.23 1216.43 1026.57 1216.46L1021.2 1331.4C1021.37 1331.4 1021.54 1331.4 1021.71 1331.42L1052.89 1224.75L1032.72 1213.1ZM1030.45 1201.7C1032.02 1202.68 1033.25 1204.2 1033.84 1206.1C1034.45 1208.06 1034.26 1210.08 1033.46 1211.81L1053.32 1223.29L1099.68 1064.73L1030.45 1201.7ZM1032.92 970.422C1032.33 970.604 1031.74 970.713 1031.15 970.758L1030.49 1007.75L1096.44 1052.17C1096.68 1051.88 1096.94 1051.61 1097.22 1051.36L1034.8 969.558C1034.22 969.913 1033.6 970.215 1032.92 970.422ZM1009.09 986.702C1009.76 988.86 1009.47 991.075 1008.47 992.914L1029.04 1006.77L1029.67 970.733C1027.98 970.544 1026.39 969.816 1025.14 968.67L1007.85 984.289C1008.38 985.001 1008.81 985.805 1009.09 986.702ZM918.58 910.813C917.063 911.284 915.515 911.275 914.09 910.881L897.251 955.561L994.07 985.982C994.382 985.249 994.801 984.561 995.314 983.941L921.296 909.345C920.516 909.988 919.605 910.495 918.58 910.813ZM891.732 704.461L811.692 812.523L910.645 897.43C911.519 896.581 912.593 895.916 913.836 895.53C914.119 895.442 914.403 895.373 914.688 895.318L895.925 705.627C894.427 705.636 892.98 705.217 891.732 704.461ZM776.275 600.652C776.05 601.467 775.701 602.241 775.237 602.943L890.042 692.157C890.637 691.521 891.34 690.978 892.137 690.556L861.066 615.829L776.275 600.652ZM769.756 590.618C772.694 591.062 775.27 593.122 776.21 596.151C776.526 597.167 776.624 598.2 776.539 599.2L860.392 614.206L783.573 429.449C783.065 429.556 782.558 429.611 782.054 429.619L769.756 590.618ZM714.804 313.937C713.38 314.38 711.928 314.396 710.575 314.07L682.548 396.716L774.365 419.025C774.888 417.505 775.862 416.157 777.183 415.186L715.906 313.494C715.554 313.663 715.191 313.818 714.804 313.937ZM666.586 156.126L710.776 298.471C710.967 298.431 711.16 298.404 711.35 298.377L705.396 160.62L666.586 156.126ZM698.591 25.8383L666.062 140.165C668.258 141.019 670.061 142.823 670.813 145.249C671.972 148.98 670.26 152.912 666.931 154.68L705.332 159.126L699.575 25.9454C699.243 25.9294 698.915 25.8946 698.591 25.8383ZM447.392 87.6737C448.853 88.5458 450.043 89.8812 450.712 91.5566L691.798 19.7961L692.096 19.3508C692.016 18.9071 691.973 18.465 691.97 18.0249L488.903 0.825724L447.392 87.6737ZM473.815 6.24668C472.505 6.65344 471.167 6.70572 469.907 6.45817L446.588 85.9291L487.328 0.691598L479.314 0.0136437C478.803 2.85941 476.766 5.32958 473.815 6.24668ZM339.69 94.4534L406.8 45.1644L365.17 -12.5989C364.649 -12.292 364.09 -12.0341 363.488 -11.8474C362.334 -11.4889 361.162 -11.4132 360.039 -11.5667L336.06 91.9906C337.464 92.4572 338.729 93.3025 339.69 94.4534ZM218.484 125.91L364.654 206.419C365.638 204.969 367.097 203.826 368.901 203.267C370.949 202.631 373.056 202.865 374.834 203.751L438.477 100.916C437.183 99.9413 436.168 98.5722 435.652 96.9089C435.581 96.6822 435.526 96.4544 435.477 96.2268L219.023 122.449C219.104 123.649 218.912 124.829 218.484 125.91ZM460.677 274.228C460.943 274.145 461.211 274.078 461.479 274.023L455.318 215.601L379.189 212.02C379.029 213.155 378.632 214.237 378.025 215.194L457.202 276.415C458.121 275.428 459.297 274.656 460.677 274.228ZM488.803 310.289L551.13 225.592C550.581 225.105 550.097 224.539 549.695 223.904L470.245 278.39C470.415 278.744 470.57 279.11 470.691 279.497C471.655 282.602 470.627 285.845 468.339 287.865L488.803 310.289ZM673.198 630.685L704.758 569.533L641.069 539.661C640.347 541.067 639.211 542.262 637.765 543.043L666.201 629.192C668.717 628.541 671.29 629.159 673.198 630.685ZM770.941 606.165C770.301 606.363 769.657 606.468 769.018 606.504L768.082 664.547L888.341 694.959C888.545 694.385 888.808 693.836 889.135 693.322L774.31 604.096C773.409 605.028 772.267 605.753 770.941 606.165ZM778.928 429.04L706.774 568.848L761.62 594.572C762.588 592.867 764.175 591.509 766.196 590.881C766.889 590.666 767.589 590.559 768.28 590.533L780.582 429.505C780.013 429.407 779.457 429.255 778.928 429.04ZM682.072 398.121L637.707 528.944C638.552 529.392 639.314 529.995 639.955 530.723L775.179 425.916C774.806 425.329 774.498 424.69 774.281 423.995C773.914 422.811 773.845 421.61 774.015 420.461L682.072 398.121ZM705.045 309.363L542.379 359.862C542.582 360.811 542.6 361.761 542.464 362.679L681.108 396.366L709.177 313.597C707.359 312.786 705.849 311.309 705.045 309.363ZM451.141 92.971C451.324 93.8857 451.333 94.8014 451.204 95.6865L615.568 135.368L694.849 24.1023C693.897 23.3116 693.117 22.2952 692.607 21.0969L451.141 92.971ZM532.183 353.876C533.126 353.583 534.083 353.482 535.014 353.537L554.093 227.267C553.471 227.074 552.877 226.802 552.322 226.466L489.818 311.403L529.735 355.14C530.455 354.596 531.272 354.158 532.183 353.876ZM542.114 364.115C541.572 365.688 540.552 367.079 539.16 368.058L631.248 528.489C631.36 528.449 631.467 528.403 631.582 528.368C633.193 527.867 634.844 527.905 636.339 528.373L680.631 397.77L542.114 364.115ZM656.983 152.687L563.461 215.775C563.713 216.236 563.924 216.726 564.084 217.247C564.727 219.317 564.483 221.452 563.571 223.244L603.559 245.327L658.438 154.06C657.902 153.667 657.411 153.209 656.983 152.687ZM561.663 213.565C562 213.853 562.316 214.167 562.602 214.512L619.253 176.33L656.153 151.461C655.901 151.002 655.691 150.512 655.53 149.993C655.165 148.813 655.093 147.616 655.262 146.47L616.191 137.038L561.663 213.565ZM450.857 97.1214C450.499 98.1651 449.931 99.1268 449.182 99.9431L551.65 213.219C552.363 212.686 553.172 212.256 554.071 211.977C556.296 211.286 558.591 211.624 560.46 212.709L614.644 136.665L450.857 97.1214ZM550.555 214.211L448.086 100.934C447.374 101.468 446.565 101.898 445.665 102.178C445.399 102.26 445.131 102.327 444.863 102.382L456.654 214.185L548.527 218.507C548.754 216.9 549.464 215.401 550.555 214.211ZM558.816 227.26C557.863 227.557 556.899 227.655 555.959 227.599L536.499 353.764C537.025 353.897 537.536 354.082 538.023 354.316L602.798 246.594L562.781 224.494C561.809 225.76 560.455 226.751 558.816 227.26ZM697.165 25.4478C696.787 25.3048 696.419 25.1356 696.068 24.9383L617.115 135.741L655.609 145.035C656.408 142.702 658.264 140.767 660.8 139.979C662.089 139.578 663.401 139.524 664.642 139.757L697.165 25.4478ZM704.606 307.953C704.249 306.272 704.456 304.582 705.106 303.095L604.091 247.309L539.29 355.078C540.435 355.919 541.369 357.065 541.942 358.45L704.606 307.953ZM705.436 568.22L777.615 428.361C777.055 428.002 776.544 427.572 776.085 427.082L652.66 522.745L640.823 531.919C641.139 532.451 641.405 533.021 641.595 533.637C642.084 535.21 642.061 536.82 641.624 538.289L705.436 568.22ZM675.838 634.558C676.037 635.202 676.142 635.85 676.177 636.492L760.932 600.909L760.927 600.895C760.403 599.204 760.474 597.474 761.012 595.92L706.097 570.161L674.306 631.76C674.98 632.557 675.509 633.498 675.838 634.558ZM766.445 765.976C768.69 766.222 770.749 767.417 772.076 769.268L863.971 715.453L888.634 701.011C888.483 700.685 888.343 700.351 888.235 699.998C887.859 698.79 887.795 697.562 887.978 696.39L768.057 666.064L766.445 765.976ZM761.504 602.272L676.099 638.128C675.943 639.157 675.588 640.139 675.06 641.024L766.61 664.175L767.542 606.452C765.01 606.122 762.732 604.592 761.504 602.272ZM763.205 766.287C763.791 766.106 764.381 766.002 764.967 765.957L766.586 665.693L674.112 642.308C673.632 642.836 673.078 643.302 672.46 643.692L761.517 767.042C762.039 766.735 762.602 766.476 763.205 766.287ZM469.482 277.121L549.016 222.578C548.94 222.386 548.864 222.193 548.802 221.991C548.595 221.324 548.489 220.65 548.458 219.982L456.811 215.671L462.949 273.871C465.524 273.838 467.96 275.06 469.482 277.121ZM378.915 208.536C379.122 209.203 379.227 209.878 379.258 210.544L455.161 214.114L443.394 102.534C442.107 102.55 440.856 102.252 439.732 101.694L376.09 204.528C377.383 205.503 378.398 206.871 378.915 208.536ZM340.527 95.6692C340.795 96.1497 341.019 96.662 341.189 97.2072C341.354 97.7388 341.458 98.2745 341.512 98.8077L435.307 94.1896C435.402 91.9982 436.395 89.939 438.037 88.5074L407.664 46.3628L340.527 95.6692ZM465.463 3.91302L408.854 45.4882L439.238 87.6451C439.759 87.3382 440.319 87.0811 440.921 86.893C442.232 86.4871 443.57 86.4348 444.829 86.6821L468.491 6.03784C467.337 5.57948 466.298 4.85282 465.463 3.91302ZM366.372 -13.4596L407.99 44.2897L464.59 2.72162C464.268 2.18307 463.995 1.60367 463.801 0.977247C463.498 -0.000665066 463.399 -0.990072 463.467 -1.95436L368.851 -17.472C368.446 -15.9246 367.586 -14.5201 366.372 -13.4596ZM664.828 155.445C663.045 155.825 661.256 155.57 659.703 154.821L604.853 246.042L705.82 301.8C706.671 300.545 707.883 299.522 709.366 298.91L664.828 155.445ZM810.569 811.559L890.545 703.582C890.112 703.197 889.72 702.765 889.376 702.288L772.819 770.544C772.971 770.87 773.11 771.205 773.219 771.557C773.987 774.031 773.488 776.589 772.099 778.551L810.569 811.559ZM748.171 904.247C748.376 904.903 748.481 905.567 748.514 906.224L908.231 902.614C908.336 901.14 908.847 899.737 909.686 898.55L810.811 813.713L746.186 900.963C747.076 901.852 747.772 902.961 748.171 904.247ZM895.839 955.116L912.71 910.359C910.793 909.425 909.248 907.74 908.566 905.544C908.416 905.062 908.32 904.574 908.264 904.09L748.451 907.704C748.402 908.054 748.333 908.399 748.24 908.737L895.839 955.116ZM858.232 1070.05L994.171 992.386C994.031 992.079 993.908 991.774 993.808 991.451C993.386 990.089 993.347 988.695 993.627 987.391L896.726 956.943L855.083 1067.43C856.327 1068.01 857.424 1068.91 858.232 1070.05ZM1023.83 1200.83C1024.07 1200.75 1024.32 1200.7 1024.57 1200.64L1001.61 997.07C999.904 997.108 998.262 996.595 996.895 995.647L900.098 1110.98L1020.33 1203.04C1021.25 1202.04 1022.43 1201.27 1023.83 1200.83ZM1003.82 996.721C1003.57 996.792 1003.33 996.859 1003.07 996.906L1025.66 1197.12L1029 1008.53L1007.64 994.142C1006.68 995.313 1005.38 996.233 1003.82 996.721ZM1095 1059.61C1094.33 1057.45 1094.62 1055.24 1095.62 1053.4L1030.47 1009.51L1027.08 1200.52C1027.79 1200.6 1028.47 1200.77 1029.13 1201.03L1098.39 1064.01C1096.83 1063.03 1095.59 1061.51 1095 1059.61ZM446.504 377.256L526.589 362.258C526.375 359.987 527.156 357.773 528.644 356.136L488.926 312.616L443.926 373.767C445.062 374.642 445.965 375.831 446.504 377.256ZM180.385 291.609C182.451 292.103 184.275 293.408 185.393 295.281L363.731 213.552C363.699 213.461 363.662 213.374 363.632 213.28C363.375 212.452 363.263 211.616 363.275 210.795L198.703 193.165L180.385 291.609ZM144.332 187.34C143.842 189.758 142.241 191.875 139.924 192.974L176.162 291.742C177.082 291.456 178.013 291.355 178.922 291.4L197.229 193.008L144.332 187.34ZM138.536 193.482C134.412 194.577 130.124 192.242 128.847 188.13C127.927 185.166 128.822 182.076 130.896 180.043L53.7823 85.0742L174.628 291.851L138.536 193.482ZM213.419 130.613C212.373 130.938 211.308 131.035 210.282 130.937L198.974 191.709L363.43 209.326C363.543 208.768 363.719 208.231 363.944 207.715L217.816 127.229C216.833 128.789 215.317 130.024 213.419 130.613ZM337.327 106.629L422.661 96.291L341.516 100.286C341.279 102.935 339.728 105.345 337.327 106.629ZM1026.97 648.227C1026.73 647.306 1026.65 646.379 1026.72 645.477L862.794 616.137L893.498 689.987L893.503 689.984C897.344 688.792 901.394 690.644 903.08 694.167L1026.97 648.227ZM888.608 1350.78C889.058 1350.53 889.546 1350.32 890.058 1350.16C892.724 1349.34 895.489 1349.97 897.499 1351.61L946.959 1296.17L818.606 1218.31C818.071 1218.84 817.453 1219.31 816.767 1219.68L888.608 1350.78ZM645.397 843.658L758.341 777.323C758.187 776.994 758.047 776.657 757.936 776.302C757.704 775.55 757.591 774.79 757.58 774.04L651.105 765.656L640.729 840.544C642.592 840.983 644.262 842.078 645.397 843.658ZM547.504 636.534C547.658 637.036 547.758 637.541 547.814 638.046L563.013 637.811L627.29 544.391L545.778 633.531C546.542 634.37 547.144 635.379 547.504 636.534ZM356.471 454.921L458.269 288.277C456.96 287.3 455.93 285.921 455.408 284.241C455.289 283.86 455.212 283.477 455.151 283.095L366.35 288.56L354.268 454.212C355.037 454.342 355.778 454.581 356.471 454.921ZM94.3856 357.12L171.491 303.179C171.25 302.733 171.047 302.259 170.89 301.756C170.41 300.21 170.426 298.627 170.845 297.177L74.0986 257.383L87.5316 353.968C90.2106 353.805 92.7842 355.008 94.3856 357.12ZM-132.577 177.088C-133.887 172.867 -131.529 168.383 -127.308 167.073C-123.887 166.011 -120.293 167.361 -118.356 170.16L40.9856 80.3978C40.8579 80.1099 40.7395 79.814 40.6437 79.5053C39.3332 75.2857 41.6936 70.8021 45.9132 69.4916C50.1328 68.1811 54.6181 70.5402 55.9277 74.7604C56.8478 77.7247 55.9516 80.8159 53.8785 82.8486L132.042 179.109C132.668 178.692 133.36 178.351 134.117 178.116C137.027 177.213 140.061 178.056 142.095 180.048L204.368 127.369C203.964 126.756 203.634 126.08 203.405 125.344C202.095 121.123 204.453 116.641 208.674 115.331C212.864 114.03 217.308 116.347 218.655 120.509L325.625 100.649C325.108 96.8447 327.388 93.1135 331.175 91.9378C332.327 91.5805 333.499 91.504 334.621 91.6567L358.601 -11.9012C356.236 -12.686 354.269 -14.5553 353.473 -17.1162C352.164 -21.337 354.523 -25.8195 358.744 -27.1298C362.963 -28.4411 367.447 -26.0807 368.758 -21.8617C369.061 -20.883 369.159 -19.8924 369.092 -18.9301L463.707 -3.41189C464.384 -5.99649 466.331 -8.18599 469.07 -9.0365C471.112 -9.67038 473.214 -9.43904 474.99 -8.55999L545.606 -123.182C544.307 -124.158 543.285 -125.529 542.767 -127.201C541.457 -131.421 543.817 -135.904 548.036 -137.214C552.258 -138.524 556.741 -136.165 558.051 -131.944C558.878 -129.281 558.24 -126.515 556.599 -124.505L694.814 11.8396C695.607 11.1711 696.544 10.6459 697.597 10.3194C697.807 10.2546 698.018 10.205 698.229 10.1582L761.728 -85.0121C760.538 -85.9745 759.61 -87.2855 759.122 -88.8569C757.812 -93.0779 760.17 -97.5604 764.391 -98.8701C768.611 -100.181 773.095 -97.8208 774.405 -93.6021C775.715 -89.3811 773.357 -84.8978 769.136 -83.5875C768.879 -83.5086 768.623 -83.4425 768.366 -83.3902L796.103 169.638L796.667 169.702L796.197 170.473L796.52 173.427L795.442 171.708L717.209 299.887C718.521 300.864 719.551 302.243 720.074 303.925C721.111 307.267 719.841 310.769 717.174 312.734L778.449 414.425C778.802 414.255 779.166 414.1 779.551 413.981C783.772 412.672 788.255 415.03 789.566 419.249C790.791 423.198 788.805 427.377 785.086 428.971L1029.16 640.383C1030.03 639.548 1031.09 638.893 1032.32 638.512C1036.54 637.201 1041.02 639.561 1042.33 643.78C1043.64 648.001 1041.28 652.485 1037.06 653.794C1035.35 654.325 1033.6 654.245 1032.03 653.69L920.211 896.254C921.891 897.226 923.229 898.799 923.849 900.801C924.423 902.645 924.294 904.542 923.614 906.2L1023.83 958.449C1024.81 956.921 1026.31 955.719 1028.18 955.142C1032.4 953.831 1036.88 956.187 1038.2 960.412C1039.14 963.458 1038.17 966.637 1035.97 968.665L1098.4 1050.46C1098.97 1050.1 1099.59 1049.81 1100.26 1049.59C1104.48 1048.28 1108.97 1050.64 1110.28 1054.86C1111.59 1059.09 1109.23 1063.57 1105.01 1064.88C1104.6 1065.01 1104.17 1065.09 1103.75 1065.15L1112.55 1250.16C1115.83 1250.32 1118.81 1252.47 1119.83 1255.78C1121.15 1260 1118.79 1264.48 1114.57 1265.8C1111.72 1266.68 1108.75 1265.88 1106.72 1263.98L1027.19 1334.36C1027.81 1335.12 1028.3 1336.01 1028.62 1337.02C1029.92 1341.24 1027.56 1345.72 1023.34 1347.03C1019.12 1348.34 1014.64 1345.98 1013.33 1341.76C1013.29 1341.65 1013.27 1341.54 1013.25 1341.43L900.415 1358.26C900.231 1361.5 898.083 1364.43 894.806 1365.45C890.581 1366.75 886.099 1364.4 884.791 1360.18C883.791 1356.96 884.922 1353.61 887.373 1351.6L815.403 1220.26L815.316 1220.3C811.091 1221.6 806.609 1219.25 805.301 1215.03C803.988 1210.81 806.348 1206.32 810.567 1205.01C811.896 1204.6 813.244 1204.55 814.519 1204.81L848.726 1082.1C846.569 1081.23 844.81 1079.44 844.063 1077.05C843.082 1073.88 844.17 1070.55 846.566 1068.54L744.168 913.736C743.766 913.941 743.348 914.122 742.903 914.26C738.682 915.57 734.198 913.211 732.887 908.99C732.281 907.035 732.469 905.026 733.26 903.3L645.44 852.928C644.46 854.325 643.033 855.423 641.276 855.969C637.056 857.279 632.573 854.919 631.262 850.699C630.621 848.633 630.864 846.505 631.77 844.715L491.78 756.733C490.807 758.005 489.45 759.002 487.805 759.512C483.584 760.823 479.1 758.464 477.791 754.244C476.481 750.023 478.84 745.539 483.061 744.229C484.819 743.684 486.62 743.783 488.222 744.38L535.741 645.755C534.116 644.779 532.826 643.232 532.219 641.279C531.043 637.487 532.833 633.491 536.269 631.767L440.716 388.001L441.401 387.732C438.654 388.584 435.8 387.873 433.778 386.114L359.225 457.142C359.818 457.893 360.292 458.758 360.593 459.727C361.904 463.946 359.544 468.429 355.324 469.74C351.104 471.051 346.62 468.691 345.31 464.471C344.508 461.887 345.086 459.207 346.622 457.214L183.672 305.517C182.883 306.18 181.952 306.701 180.904 307.026C177.681 308.027 174.31 306.883 172.31 304.409L95.1657 358.378C95.356 358.759 95.5252 359.155 95.6562 359.575C96.9651 363.796 94.6064 368.279 90.3874 369.59C86.1664 370.9 81.6833 368.541 80.3722 364.32C79.6409 361.963 80.0556 359.526 81.2977 357.605L-119.456 180.533C-120.315 181.345 -121.36 181.982 -122.564 182.356C-126.784 183.666 -131.269 181.307 -132.577 177.088Z" fill="black"/>
</svg>
