<svg width="406" height="22" viewBox="0 0 406 22" fill="none" xmlns="http://www.w3.org/2000/svg">
<path d="M12.3633 14.9482C11.8333 15.7074 11.0921 16.2767 10.1396 16.6562C9.19434 17.0286 8.09147 17.2148 6.83105 17.2148C5.55632 17.2148 4.4248 16.9176 3.43652 16.3232C2.44824 15.7217 1.68197 14.8695 1.1377 13.7666C0.600586 12.6637 0.32487 11.3854 0.310547 9.93164V8.56738C0.310547 6.21126 0.858398 4.38509 1.9541 3.08887C3.05697 1.79264 4.60384 1.14453 6.59473 1.14453C8.22754 1.14453 9.54167 1.56348 10.5371 2.40137C11.5326 3.2321 12.1413 4.41374 12.3633 5.94629H10.3008C9.91406 3.87663 8.68229 2.8418 6.60547 2.8418C5.22331 2.8418 4.17415 3.32878 3.45801 4.30273C2.74902 5.26953 2.39095 6.67318 2.38379 8.51367V9.79199C2.38379 11.5465 2.78483 12.943 3.58691 13.9814C4.389 15.0127 5.47396 15.5283 6.8418 15.5283C7.61523 15.5283 8.29199 15.4424 8.87207 15.2705C9.45215 15.0986 9.93197 14.8086 10.3115 14.4004V10.8877H6.69141V9.21191H12.3633V14.9482ZM21.109 17.2148C19.5334 17.2148 18.2515 16.6992 17.2633 15.668C16.275 14.6296 15.7808 13.2438 15.7808 11.5107V11.1455C15.7808 9.99251 15.9993 8.96484 16.4361 8.0625C16.8801 7.15299 17.496 6.44401 18.2838 5.93555C19.0787 5.41992 19.9381 5.16211 20.8619 5.16211C22.373 5.16211 23.5474 5.65983 24.3853 6.65527C25.2232 7.65072 25.6422 9.07585 25.6422 10.9307V11.7578H17.7681C17.7968 12.9036 18.1298 13.8311 18.7672 14.54C19.4117 15.2419 20.2281 15.5928 21.2164 15.5928C21.9182 15.5928 22.5126 15.4495 22.9996 15.1631C23.4866 14.8766 23.9127 14.4971 24.2779 14.0244L25.4918 14.9697C24.5178 16.4665 23.0569 17.2148 21.109 17.2148ZM20.8619 6.79492C20.0598 6.79492 19.3866 7.08854 18.8424 7.67578C18.2981 8.25586 17.9615 9.07227 17.8326 10.125H23.6549V9.97461C23.5976 8.96484 23.3254 8.18424 22.8384 7.63281C22.3515 7.07422 21.6926 6.79492 20.8619 6.79492ZM31.4337 2.5625V5.37695H33.6037V6.91309H31.4337V14.1211C31.4337 14.5866 31.5304 14.9375 31.7238 15.1738C31.9171 15.403 32.2466 15.5176 32.7121 15.5176C32.9412 15.5176 33.2563 15.4746 33.6574 15.3887V17C33.1346 17.1432 32.6261 17.2148 32.132 17.2148C31.244 17.2148 30.5744 16.9463 30.1232 16.4092C29.672 15.8721 29.4464 15.1094 29.4464 14.1211V6.91309H27.3302V5.37695H29.4464V2.5625H31.4337ZM48.5813 7.16016C48.2806 7.11003 47.9547 7.08496 47.6038 7.08496C46.3004 7.08496 45.416 7.63997 44.9505 8.75V17H42.9632V5.37695H44.8968L44.929 6.71973C45.5807 5.68132 46.5045 5.16211 47.7005 5.16211C48.0872 5.16211 48.3808 5.21224 48.5813 5.3125V7.16016ZM55.8124 17.2148C54.2368 17.2148 52.9549 16.6992 51.9667 15.668C50.9784 14.6296 50.4842 13.2438 50.4842 11.5107V11.1455C50.4842 9.99251 50.7027 8.96484 51.1395 8.0625C51.5835 7.15299 52.1994 6.44401 52.9872 5.93555C53.7821 5.41992 54.6415 5.16211 55.5653 5.16211C57.0764 5.16211 58.2508 5.65983 59.0887 6.65527C59.9266 7.65072 60.3456 9.07585 60.3456 10.9307V11.7578H52.4715C52.5002 12.9036 52.8332 13.8311 53.4706 14.54C54.1151 15.2419 54.9315 15.5928 55.9198 15.5928C56.6216 15.5928 57.216 15.4495 57.703 15.1631C58.19 14.8766 58.6161 14.4971 58.9813 14.0244L60.1952 14.9697C59.2212 16.4665 57.7603 17.2148 55.8124 17.2148ZM55.5653 6.79492C54.7632 6.79492 54.09 7.08854 53.5458 7.67578C53.0015 8.25586 52.6649 9.07227 52.536 10.125H58.3583V9.97461C58.301 8.96484 58.0288 8.18424 57.5419 7.63281C57.0549 7.07422 56.396 6.79492 55.5653 6.79492ZM73.7319 14.2607L75.9662 5.37695H77.9535L74.5698 17H72.9584L70.1332 8.19141L67.3832 17H65.7719L62.3989 5.37695H64.3754L66.6635 14.0781L69.3705 5.37695H70.9711L73.7319 14.2607ZM87.9453 17C87.8307 16.7708 87.7376 16.3626 87.666 15.7754C86.7422 16.735 85.6393 17.2148 84.3574 17.2148C83.2116 17.2148 82.2699 16.8926 81.5322 16.248C80.8018 15.5964 80.4365 14.7728 80.4365 13.7773C80.4365 12.5671 80.8949 11.6289 81.8115 10.9629C82.7354 10.2897 84.0316 9.95312 85.7002 9.95312H87.6338V9.04004C87.6338 8.34538 87.4261 7.79395 87.0107 7.38574C86.5954 6.97038 85.9831 6.7627 85.1738 6.7627C84.4648 6.7627 83.8704 6.94173 83.3906 7.2998C82.9108 7.65788 82.6709 8.09115 82.6709 8.59961H80.6729C80.6729 8.01953 80.877 7.46094 81.2852 6.92383C81.7005 6.37956 82.2591 5.94987 82.9609 5.63477C83.6699 5.31966 84.4469 5.16211 85.292 5.16211C86.6312 5.16211 87.6803 5.4987 88.4395 6.17188C89.1986 6.83789 89.5924 7.75814 89.6211 8.93262V14.2822C89.6211 15.3493 89.7572 16.1979 90.0293 16.8281V17H87.9453ZM84.6475 15.4854C85.2705 15.4854 85.8613 15.3242 86.4199 15.002C86.9785 14.6797 87.3831 14.2607 87.6338 13.7451V11.3604H86.0762C83.6413 11.3604 82.4238 12.0729 82.4238 13.498C82.4238 14.1211 82.6315 14.6081 83.0469 14.959C83.4622 15.3099 83.9958 15.4854 84.6475 15.4854ZM99.1402 7.16016C98.8394 7.11003 98.5136 7.08496 98.1627 7.08496C96.8593 7.08496 95.9748 7.63997 95.5093 8.75V17H93.522V5.37695H95.4556L95.4879 6.71973C96.1396 5.68132 97.0634 5.16211 98.2593 5.16211C98.6461 5.16211 98.9397 5.21224 99.1402 5.3125V7.16016ZM101.065 11.0918C101.065 9.30859 101.487 7.8763 102.332 6.79492C103.177 5.70638 104.284 5.16211 105.652 5.16211C107.012 5.16211 108.09 5.6276 108.885 6.55859V0.5H110.872V17H109.046L108.949 15.7539C108.154 16.7279 107.048 17.2148 105.63 17.2148C104.284 17.2148 103.184 16.6634 102.332 15.5605C101.487 14.4577 101.065 13.0182 101.065 11.2422V11.0918ZM103.052 11.3174C103.052 12.6351 103.324 13.6663 103.868 14.4111C104.413 15.1559 105.165 15.5283 106.124 15.5283C107.385 15.5283 108.305 14.9626 108.885 13.8311V8.49219C108.291 7.39648 107.377 6.84863 106.146 6.84863C105.172 6.84863 104.413 7.22461 103.868 7.97656C103.324 8.72852 103.052 9.84212 103.052 11.3174ZM119.575 17.2148C117.999 17.2148 116.717 16.6992 115.729 15.668C114.741 14.6296 114.247 13.2438 114.247 11.5107V11.1455C114.247 9.99251 114.465 8.96484 114.902 8.0625C115.346 7.15299 115.962 6.44401 116.75 5.93555C117.545 5.41992 118.404 5.16211 119.328 5.16211C120.839 5.16211 122.013 5.65983 122.851 6.65527C123.689 7.65072 124.108 9.07585 124.108 10.9307V11.7578H116.234C116.263 12.9036 116.596 13.8311 117.233 14.54C117.878 15.2419 118.694 15.5928 119.682 15.5928C120.384 15.5928 120.979 15.4495 121.466 15.1631C121.953 14.8766 122.379 14.4971 122.744 14.0244L123.958 14.9697C122.984 16.4665 121.523 17.2148 119.575 17.2148ZM119.328 6.79492C118.526 6.79492 117.853 7.08854 117.308 7.67578C116.764 8.25586 116.427 9.07227 116.299 10.125H122.121V9.97461C122.064 8.96484 121.791 8.18424 121.304 7.63281C120.817 7.07422 120.159 6.79492 119.328 6.79492ZM126.72 11.0918C126.72 9.30859 127.143 7.8763 127.988 6.79492C128.833 5.70638 129.939 5.16211 131.307 5.16211C132.668 5.16211 133.745 5.6276 134.54 6.55859V0.5H136.528V17H134.701L134.605 15.7539C133.81 16.7279 132.703 17.2148 131.285 17.2148C129.939 17.2148 128.84 16.6634 127.988 15.5605C127.143 14.4577 126.72 13.0182 126.72 11.2422V11.0918ZM128.707 11.3174C128.707 12.6351 128.979 13.6663 129.524 14.4111C130.068 15.1559 130.82 15.5283 131.78 15.5283C133.04 15.5283 133.96 14.9626 134.54 13.8311V8.49219C133.946 7.39648 133.033 6.84863 131.801 6.84863C130.827 6.84863 130.068 7.22461 129.524 7.97656C128.979 8.72852 128.707 9.84212 128.707 11.3174ZM147.627 17V6.91309H145.79V5.37695H147.627V4.18457C147.627 2.93848 147.96 1.97526 148.626 1.29492C149.292 0.614583 150.234 0.274414 151.452 0.274414C151.91 0.274414 152.365 0.335286 152.816 0.457031L152.708 2.06836C152.372 2.00391 152.014 1.97168 151.634 1.97168C150.99 1.97168 150.492 2.16146 150.141 2.54102C149.79 2.91341 149.615 3.45052 149.615 4.15234V5.37695H152.096V6.91309H149.615V17H147.627ZM154.558 11.0811C154.558 9.94238 154.78 8.91829 155.224 8.00879C155.675 7.09928 156.298 6.39746 157.093 5.90332C157.895 5.40918 158.808 5.16211 159.832 5.16211C161.415 5.16211 162.693 5.70996 163.667 6.80566C164.648 7.90137 165.139 9.35872 165.139 11.1777V11.3174C165.139 12.4489 164.92 13.4658 164.483 14.3682C164.054 15.2633 163.434 15.9616 162.625 16.4629C161.823 16.9642 160.899 17.2148 159.854 17.2148C158.278 17.2148 157 16.667 156.019 15.5713C155.045 14.4756 154.558 13.0254 154.558 11.2207V11.0811ZM156.556 11.3174C156.556 12.6064 156.853 13.6413 157.447 14.4219C158.049 15.2025 158.851 15.5928 159.854 15.5928C160.863 15.5928 161.665 15.1989 162.26 14.4111C162.854 13.6162 163.151 12.5062 163.151 11.0811C163.151 9.80632 162.847 8.77507 162.238 7.9873C161.637 7.19238 160.835 6.79492 159.832 6.79492C158.851 6.79492 158.06 7.18522 157.458 7.96582C156.856 8.74642 156.556 9.86361 156.556 11.3174ZM174.035 7.16016C173.734 7.11003 173.408 7.08496 173.057 7.08496C171.754 7.08496 170.869 7.63997 170.404 8.75V17H168.417V5.37695H170.35L170.382 6.71973C171.034 5.68132 171.958 5.16211 173.154 5.16211C173.541 5.16211 173.834 5.21224 174.035 5.3125V7.16016ZM187.723 17.2148C186.148 17.2148 184.866 16.6992 183.878 15.668C182.889 14.6296 182.395 13.2438 182.395 11.5107V11.1455C182.395 9.99251 182.614 8.96484 183.051 8.0625C183.495 7.15299 184.11 6.44401 184.898 5.93555C185.693 5.41992 186.552 5.16211 187.476 5.16211C188.987 5.16211 190.162 5.65983 191 6.65527C191.838 7.65072 192.257 9.07585 192.257 10.9307V11.7578H184.383C184.411 12.9036 184.744 13.8311 185.382 14.54C186.026 15.2419 186.842 15.5928 187.831 15.5928C188.533 15.5928 189.127 15.4495 189.614 15.1631C190.101 14.8766 190.527 14.4971 190.892 14.0244L192.106 14.9697C191.132 16.4665 189.671 17.2148 187.723 17.2148ZM187.476 6.79492C186.674 6.79492 186.001 7.08854 185.457 7.67578C184.912 8.25586 184.576 9.07227 184.447 10.125H190.269V9.97461C190.212 8.96484 189.94 8.18424 189.453 7.63281C188.966 7.07422 188.307 6.79492 187.476 6.79492ZM199.036 14.3037L201.915 5.37695H203.946L199.778 17H198.263L194.052 5.37695H196.082L199.036 14.3037ZM211.316 17.2148C209.741 17.2148 208.459 16.6992 207.471 15.668C206.482 14.6296 205.988 13.2438 205.988 11.5107V11.1455C205.988 9.99251 206.207 8.96484 206.643 8.0625C207.087 7.15299 207.703 6.44401 208.491 5.93555C209.286 5.41992 210.145 5.16211 211.069 5.16211C212.58 5.16211 213.755 5.65983 214.593 6.65527C215.431 7.65072 215.849 9.07585 215.849 10.9307V11.7578H207.975C208.004 12.9036 208.337 13.8311 208.974 14.54C209.619 15.2419 210.435 15.5928 211.424 15.5928C212.126 15.5928 212.72 15.4495 213.207 15.1631C213.694 14.8766 214.12 14.4971 214.485 14.0244L215.699 14.9697C214.725 16.4665 213.264 17.2148 211.316 17.2148ZM211.069 6.79492C210.267 6.79492 209.594 7.08854 209.05 7.67578C208.505 8.25586 208.169 9.07227 208.04 10.125H213.862V9.97461C213.805 8.96484 213.533 8.18424 213.046 7.63281C212.559 7.07422 211.9 6.79492 211.069 6.79492ZM224.563 7.16016C224.262 7.11003 223.936 7.08496 223.585 7.08496C222.282 7.08496 221.398 7.63997 220.932 8.75V17H218.945V5.37695H220.878L220.911 6.71973C221.562 5.68132 222.486 5.16211 223.682 5.16211C224.069 5.16211 224.362 5.21224 224.563 5.3125V7.16016ZM231.182 14.0889L233.889 5.37695H236.016L231.343 18.7939C230.619 20.7275 229.47 21.6943 227.895 21.6943L227.519 21.6621L226.777 21.5225V19.9111L227.314 19.9541C227.988 19.9541 228.51 19.818 228.883 19.5459C229.262 19.2738 229.574 18.776 229.817 18.0527L230.258 16.8711L226.111 5.37695H228.281L231.182 14.0889ZM251.595 13.917C251.595 13.3799 251.391 12.9645 250.983 12.6709C250.582 12.3701 249.876 12.1123 248.866 11.8975C247.864 11.6826 247.065 11.4248 246.471 11.124C245.884 10.8232 245.447 10.4652 245.16 10.0498C244.881 9.63444 244.741 9.1403 244.741 8.56738C244.741 7.61491 245.142 6.80924 245.944 6.15039C246.754 5.49154 247.785 5.16211 249.038 5.16211C250.356 5.16211 251.423 5.50228 252.239 6.18262C253.063 6.86296 253.475 7.73307 253.475 8.79297H251.477C251.477 8.2487 251.244 7.77962 250.778 7.38574C250.32 6.99186 249.74 6.79492 249.038 6.79492C248.315 6.79492 247.749 6.95247 247.341 7.26758C246.933 7.58268 246.729 7.99447 246.729 8.50293C246.729 8.98275 246.918 9.3444 247.298 9.58789C247.678 9.83138 248.361 10.0641 249.35 10.2861C250.345 10.5081 251.151 10.7731 251.767 11.0811C252.383 11.389 252.837 11.7614 253.131 12.1982C253.432 12.6279 253.582 13.1543 253.582 13.7773C253.582 14.8158 253.167 15.6501 252.336 16.2803C251.505 16.9033 250.428 17.2148 249.103 17.2148C248.172 17.2148 247.348 17.0501 246.632 16.7207C245.916 16.3913 245.354 15.9329 244.945 15.3457C244.544 14.7513 244.344 14.1104 244.344 13.4229H246.331C246.367 14.0889 246.632 14.6188 247.126 15.0127C247.627 15.3994 248.286 15.5928 249.103 15.5928C249.855 15.5928 250.456 15.4424 250.907 15.1416C251.366 14.8337 251.595 14.4255 251.595 13.917ZM264.133 17C264.018 16.7708 263.925 16.3626 263.853 15.7754C262.929 16.735 261.827 17.2148 260.545 17.2148C259.399 17.2148 258.457 16.8926 257.719 16.248C256.989 15.5964 256.624 14.7728 256.624 13.7773C256.624 12.5671 257.082 11.6289 257.999 10.9629C258.923 10.2897 260.219 9.95312 261.887 9.95312H263.821V9.04004C263.821 8.34538 263.613 7.79395 263.198 7.38574C262.783 6.97038 262.17 6.7627 261.361 6.7627C260.652 6.7627 260.058 6.94173 259.578 7.2998C259.098 7.65788 258.858 8.09115 258.858 8.59961H256.86C256.86 8.01953 257.064 7.46094 257.472 6.92383C257.888 6.37956 258.446 5.94987 259.148 5.63477C259.857 5.31966 260.634 5.16211 261.479 5.16211C262.818 5.16211 263.868 5.4987 264.627 6.17188C265.386 6.83789 265.78 7.75814 265.808 8.93262V14.2822C265.808 15.3493 265.944 16.1979 266.217 16.8281V17H264.133ZM260.835 15.4854C261.458 15.4854 262.049 15.3242 262.607 15.002C263.166 14.6797 263.57 14.2607 263.821 13.7451V11.3604H262.263C259.829 11.3604 258.611 12.0729 258.611 13.498C258.611 14.1211 258.819 14.6081 259.234 14.959C259.649 15.3099 260.183 15.4854 260.835 15.4854ZM271.868 17H269.881V0.5H271.868V17ZM280.668 17.2148C279.092 17.2148 277.81 16.6992 276.822 15.668C275.834 14.6296 275.34 13.2438 275.34 11.5107V11.1455C275.34 9.99251 275.558 8.96484 275.995 8.0625C276.439 7.15299 277.055 6.44401 277.843 5.93555C278.638 5.41992 279.497 5.16211 280.421 5.16211C281.932 5.16211 283.106 5.65983 283.944 6.65527C284.782 7.65072 285.201 9.07585 285.201 10.9307V11.7578H277.327C277.356 12.9036 277.689 13.8311 278.326 14.54C278.971 15.2419 279.787 15.5928 280.775 15.5928C281.477 15.5928 282.071 15.4495 282.558 15.1631C283.045 14.8766 283.472 14.4971 283.837 14.0244L285.051 14.9697C284.077 16.4665 282.616 17.2148 280.668 17.2148ZM280.421 6.79492C279.619 6.79492 278.945 7.08854 278.401 7.67578C277.857 8.25586 277.52 9.07227 277.391 10.125H283.214V9.97461C283.156 8.96484 282.884 8.18424 282.397 7.63281C281.91 7.07422 281.251 6.79492 280.421 6.79492ZM299.201 15.5928C299.91 15.5928 300.53 15.3779 301.06 14.9482C301.59 14.5186 301.883 13.9814 301.94 13.3369H303.82C303.785 14.0029 303.555 14.6367 303.133 15.2383C302.71 15.8398 302.145 16.3197 301.436 16.6777C300.734 17.0358 299.989 17.2148 299.201 17.2148C297.618 17.2148 296.358 16.6885 295.42 15.6357C294.489 14.5758 294.023 13.1292 294.023 11.2959V10.9629C294.023 9.83138 294.231 8.8252 294.646 7.94434C295.062 7.06348 295.656 6.37956 296.43 5.89258C297.21 5.4056 298.131 5.16211 299.19 5.16211C300.494 5.16211 301.575 5.55241 302.435 6.33301C303.301 7.11361 303.763 8.12695 303.82 9.37305H301.94C301.883 8.62109 301.597 8.00521 301.081 7.52539C300.573 7.03841 299.942 6.79492 299.19 6.79492C298.181 6.79492 297.396 7.16016 296.838 7.89062C296.286 8.61393 296.011 9.66309 296.011 11.0381V11.4141C296.011 12.7533 296.286 13.7845 296.838 14.5078C297.389 15.2311 298.177 15.5928 299.201 15.5928ZM306.314 11.0811C306.314 9.94238 306.536 8.91829 306.98 8.00879C307.431 7.09928 308.054 6.39746 308.849 5.90332C309.651 5.40918 310.564 5.16211 311.588 5.16211C313.171 5.16211 314.449 5.70996 315.423 6.80566C316.405 7.90137 316.895 9.35872 316.895 11.1777V11.3174C316.895 12.4489 316.677 13.4658 316.24 14.3682C315.81 15.2633 315.191 15.9616 314.381 16.4629C313.579 16.9642 312.655 17.2148 311.61 17.2148C310.034 17.2148 308.756 16.667 307.775 15.5713C306.801 14.4756 306.314 13.0254 306.314 11.2207V11.0811ZM308.312 11.3174C308.312 12.6064 308.609 13.6413 309.204 14.4219C309.805 15.2025 310.607 15.5928 311.61 15.5928C312.62 15.5928 313.422 15.1989 314.016 14.4111C314.611 13.6162 314.908 12.5062 314.908 11.0811C314.908 9.80632 314.603 8.77507 313.995 7.9873C313.393 7.19238 312.591 6.79492 311.588 6.79492C310.607 6.79492 309.816 7.18522 309.214 7.96582C308.613 8.74642 308.312 9.86361 308.312 11.3174ZM322.053 5.37695L322.117 6.83789C323.005 5.7207 324.166 5.16211 325.598 5.16211C328.054 5.16211 329.293 6.54785 329.315 9.31934V17H327.327V9.30859C327.32 8.4707 327.127 7.85124 326.747 7.4502C326.375 7.04915 325.791 6.84863 324.996 6.84863C324.352 6.84863 323.786 7.02051 323.299 7.36426C322.812 7.70801 322.432 8.15918 322.16 8.71777V17H320.173V5.37695H322.053ZM336.932 14.3037L339.811 5.37695H341.842L337.674 17H336.159L331.948 5.37695H333.978L336.932 14.3037ZM349.212 17.2148C347.637 17.2148 346.355 16.6992 345.366 15.668C344.378 14.6296 343.884 13.2438 343.884 11.5107V11.1455C343.884 9.99251 344.102 8.96484 344.539 8.0625C344.983 7.15299 345.599 6.44401 346.387 5.93555C347.182 5.41992 348.041 5.16211 348.965 5.16211C350.476 5.16211 351.651 5.65983 352.489 6.65527C353.326 7.65072 353.745 9.07585 353.745 10.9307V11.7578H345.871C345.9 12.9036 346.233 13.8311 346.87 14.54C347.515 15.2419 348.331 15.5928 349.32 15.5928C350.021 15.5928 350.616 15.4495 351.103 15.1631C351.59 14.8766 352.016 14.4971 352.381 14.0244L353.595 14.9697C352.621 16.4665 351.16 17.2148 349.212 17.2148ZM348.965 6.79492C348.163 6.79492 347.49 7.08854 346.946 7.67578C346.401 8.25586 346.065 9.07227 345.936 10.125H351.758V9.97461C351.701 8.96484 351.429 8.18424 350.942 7.63281C350.455 7.07422 349.796 6.79492 348.965 6.79492ZM362.459 7.16016C362.158 7.11003 361.832 7.08496 361.481 7.08496C360.178 7.08496 359.293 7.63997 358.828 8.75V17H356.841V5.37695H358.774L358.806 6.71973C359.458 5.68132 360.382 5.16211 361.578 5.16211C361.965 5.16211 362.258 5.21224 362.459 5.3125V7.16016ZM371.849 13.917C371.849 13.3799 371.645 12.9645 371.237 12.6709C370.836 12.3701 370.13 12.1123 369.121 11.8975C368.118 11.6826 367.319 11.4248 366.725 11.124C366.138 10.8232 365.701 10.4652 365.414 10.0498C365.135 9.63444 364.996 9.1403 364.996 8.56738C364.996 7.61491 365.397 6.80924 366.199 6.15039C367.008 5.49154 368.039 5.16211 369.292 5.16211C370.61 5.16211 371.677 5.50228 372.494 6.18262C373.317 6.86296 373.729 7.73307 373.729 8.79297H371.731C371.731 8.2487 371.498 7.77962 371.033 7.38574C370.574 6.99186 369.994 6.79492 369.292 6.79492C368.569 6.79492 368.003 6.95247 367.595 7.26758C367.187 7.58268 366.983 7.99447 366.983 8.50293C366.983 8.98275 367.173 9.3444 367.552 9.58789C367.932 9.83138 368.616 10.0641 369.604 10.2861C370.599 10.5081 371.405 10.7731 372.021 11.0811C372.637 11.389 373.092 11.7614 373.385 12.1982C373.686 12.6279 373.836 13.1543 373.836 13.7773C373.836 14.8158 373.421 15.6501 372.59 16.2803C371.76 16.9033 370.682 17.2148 369.357 17.2148C368.426 17.2148 367.602 17.0501 366.886 16.7207C366.17 16.3913 365.608 15.9329 365.2 15.3457C364.799 14.7513 364.598 14.1104 364.598 13.4229H366.585C366.621 14.0889 366.886 14.6188 367.38 15.0127C367.882 15.3994 368.54 15.5928 369.357 15.5928C370.109 15.5928 370.71 15.4424 371.162 15.1416C371.62 14.8337 371.849 14.4255 371.849 13.917ZM379.37 17H377.383V5.37695H379.37V17ZM377.222 2.29395C377.222 1.97168 377.318 1.69954 377.512 1.47754C377.712 1.25553 378.006 1.14453 378.393 1.14453C378.779 1.14453 379.073 1.25553 379.273 1.47754C379.474 1.69954 379.574 1.97168 379.574 2.29395C379.574 2.61621 379.474 2.88477 379.273 3.09961C379.073 3.31445 378.779 3.42188 378.393 3.42188C378.006 3.42188 377.712 3.31445 377.512 3.09961C377.318 2.88477 377.222 2.61621 377.222 2.29395ZM382.82 11.0811C382.82 9.94238 383.042 8.91829 383.486 8.00879C383.937 7.09928 384.56 6.39746 385.355 5.90332C386.157 5.40918 387.07 5.16211 388.094 5.16211C389.677 5.16211 390.955 5.70996 391.929 6.80566C392.91 7.90137 393.401 9.35872 393.401 11.1777V11.3174C393.401 12.4489 393.183 13.4658 392.746 14.3682C392.316 15.2633 391.697 15.9616 390.887 16.4629C390.085 16.9642 389.161 17.2148 388.116 17.2148C386.54 17.2148 385.262 16.667 384.281 15.5713C383.307 14.4756 382.82 13.0254 382.82 11.2207V11.0811ZM384.818 11.3174C384.818 12.6064 385.115 13.6413 385.71 14.4219C386.311 15.2025 387.113 15.5928 388.116 15.5928C389.126 15.5928 389.928 15.1989 390.522 14.4111C391.116 13.6162 391.414 12.5062 391.414 11.0811C391.414 9.80632 391.109 8.77507 390.501 7.9873C389.899 7.19238 389.097 6.79492 388.094 6.79492C387.113 6.79492 386.322 7.18522 385.72 7.96582C385.119 8.74642 384.818 9.86361 384.818 11.3174ZM398.559 5.37695L398.623 6.83789C399.511 5.7207 400.671 5.16211 402.104 5.16211C404.56 5.16211 405.799 6.54785 405.82 9.31934V17H403.833V9.30859C403.826 8.4707 403.633 7.85124 403.253 7.4502C402.881 7.04915 402.297 6.84863 401.502 6.84863C400.858 6.84863 400.292 7.02051 399.805 7.36426C399.318 7.70801 398.938 8.15918 398.666 8.71777V17H396.679V5.37695H398.559Z" fill="#D9DAE4"/>
</svg>
