<svg width="455" height="50" viewBox="0 0 455 50" fill="none" xmlns="http://www.w3.org/2000/svg">
<path d="M13.333 25.9873H7.49805V39H0.173828V3.45312H13.3818C17.5811 3.45312 20.82 4.389 23.0986 6.26074C25.3773 8.13249 26.5166 10.7773 26.5166 14.1953C26.5166 16.6204 25.9876 18.6468 24.9297 20.2744C23.888 21.8857 22.3011 23.1715 20.1689 24.1318L27.8594 38.6582V39H19.998L13.333 25.9873ZM7.49805 20.0547H13.4062C15.2454 20.0547 16.6696 19.5908 17.6787 18.6631C18.6878 17.7191 19.1924 16.4251 19.1924 14.7812C19.1924 13.1048 18.7122 11.7865 17.752 10.8262C16.8079 9.86589 15.3512 9.38574 13.3818 9.38574H7.49805V20.0547ZM44.6351 39.4883C40.7614 39.4883 37.6038 38.3001 35.1624 35.9238C32.7373 33.5475 31.5247 30.3818 31.5247 26.4268V25.7432C31.5247 23.0902 32.0374 20.722 33.0628 18.6387C34.0882 16.5391 35.5368 14.9277 37.4085 13.8047C39.2965 12.6654 41.445 12.0957 43.8538 12.0957C47.4671 12.0957 50.3073 13.235 52.3743 15.5137C54.4577 17.7923 55.4993 21.0231 55.4993 25.2061V28.0869H38.6781C38.9059 29.8122 39.5895 31.1956 40.7288 32.2373C41.8844 33.279 43.3411 33.7998 45.099 33.7998C47.8171 33.7998 49.9411 32.8151 51.471 30.8457L54.9378 34.7275C53.8799 36.2249 52.4476 37.3968 50.6409 38.2432C48.8343 39.0732 46.8324 39.4883 44.6351 39.4883ZM43.8294 17.8086C42.4297 17.8086 41.2904 18.2806 40.4115 19.2246C39.5488 20.1686 38.9954 21.5195 38.7513 23.2773H48.5658V22.7158C48.5332 21.1533 48.11 19.9489 47.2962 19.1025C46.4824 18.2399 45.3268 17.8086 43.8294 17.8086ZM62.2897 39V17.7598H58.3591V12.584H62.2897V10.3379C62.2897 7.37565 63.1361 5.08073 64.8288 3.45312C66.5378 1.80924 68.9222 0.987305 71.9821 0.987305C72.9587 0.987305 74.1549 1.15007 75.571 1.47559L75.4977 6.94434C74.9118 6.79785 74.1956 6.72461 73.3493 6.72461C70.6963 6.72461 69.3698 7.96973 69.3698 10.46V12.584H74.6188V17.7598H69.3698V39H62.2897ZM90.6865 39.4883C86.8128 39.4883 83.6553 38.3001 81.2139 35.9238C78.7887 33.5475 77.5762 30.3818 77.5762 26.4268V25.7432C77.5762 23.0902 78.0889 20.722 79.1143 18.6387C80.1396 16.5391 81.5882 14.9277 83.46 13.8047C85.348 12.6654 87.4964 12.0957 89.9053 12.0957C93.5186 12.0957 96.3587 13.235 98.4258 15.5137C100.509 17.7923 101.551 21.0231 101.551 25.2061V28.0869H84.7295C84.9574 29.8122 85.641 31.1956 86.7803 32.2373C87.9359 33.279 89.3926 33.7998 91.1504 33.7998C93.8685 33.7998 95.9925 32.8151 97.5225 30.8457L100.989 34.7275C99.9313 36.2249 98.499 37.3968 96.6924 38.2432C94.8857 39.0732 92.8838 39.4883 90.6865 39.4883ZM89.8809 17.8086C88.4811 17.8086 87.3418 18.2806 86.4629 19.2246C85.6003 20.1686 85.0469 21.5195 84.8027 23.2773H94.6172V22.7158C94.5846 21.1533 94.1615 19.9489 93.3477 19.1025C92.5339 18.2399 91.3783 17.8086 89.8809 17.8086ZM121.256 19.2002C120.296 19.07 119.45 19.0049 118.717 19.0049C116.048 19.0049 114.298 19.9082 113.468 21.7148V39H106.412V12.584H113.077L113.273 15.7334C114.689 13.3083 116.65 12.0957 119.157 12.0957C119.938 12.0957 120.67 12.2015 121.354 12.4131L121.256 19.2002ZM121.626 35.5332C121.626 34.4102 122 33.4987 122.749 32.7988C123.514 32.099 124.466 31.749 125.605 31.749C126.761 31.749 127.713 32.099 128.462 32.7988C129.227 33.4987 129.609 34.4102 129.609 35.5332C129.609 36.64 129.235 37.5433 128.486 38.2432C127.737 38.9268 126.777 39.2686 125.605 39.2686C124.45 39.2686 123.497 38.9268 122.749 38.2432C122 37.5433 121.626 36.64 121.626 35.5332ZM171.779 23.5947H157.716V33.1162H174.22V39H150.392V3.45312H174.171V9.38574H157.716V17.8574H171.779V23.5947ZM194.194 39C193.868 38.3652 193.632 37.5758 193.486 36.6318C191.777 38.5361 189.555 39.4883 186.821 39.4883C184.233 39.4883 182.085 38.7396 180.376 37.2422C178.683 35.7448 177.837 33.8568 177.837 31.5781C177.837 28.7786 178.87 26.6302 180.937 25.1328C183.021 23.6354 186.023 22.8786 189.946 22.8623H193.193V21.3486C193.193 20.1279 192.876 19.1514 192.241 18.4189C191.622 17.6865 190.638 17.3203 189.287 17.3203C188.099 17.3203 187.163 17.6051 186.479 18.1748C185.812 18.7445 185.478 19.5257 185.478 20.5186H178.423C178.423 18.9886 178.895 17.5726 179.839 16.2705C180.783 14.9684 182.117 13.9512 183.842 13.2188C185.568 12.4701 187.505 12.0957 189.653 12.0957C192.908 12.0957 195.488 12.9176 197.392 14.5615C199.313 16.1891 200.273 18.484 200.273 21.4463V32.8965C200.289 35.403 200.639 37.2992 201.323 38.585V39H194.194ZM188.359 34.0928C189.401 34.0928 190.361 33.8649 191.24 33.4092C192.119 32.9372 192.77 32.3105 193.193 31.5293V26.9883H190.556C187.024 26.9883 185.145 28.209 184.917 30.6504L184.892 31.0654C184.892 31.9443 185.202 32.6686 185.82 33.2383C186.438 33.8079 187.285 34.0928 188.359 34.0928ZM221.37 19.2002C220.41 19.07 219.563 19.0049 218.831 19.0049C216.162 19.0049 214.412 19.9082 213.582 21.7148V39H206.526V12.584H213.191L213.387 15.7334C214.803 13.3083 216.764 12.0957 219.271 12.0957C220.052 12.0957 220.784 12.2015 221.468 12.4131L221.37 19.2002ZM232.116 12.584L232.335 15.6357C234.223 13.2757 236.754 12.0957 239.928 12.0957C242.728 12.0957 244.811 12.9176 246.178 14.5615C247.545 16.2054 248.245 18.6631 248.278 21.9346V39H241.222V22.1055C241.222 20.6081 240.896 19.5257 240.245 18.8584C239.594 18.1748 238.512 17.833 236.998 17.833C235.013 17.833 233.523 18.6794 232.531 20.3721V39H225.475V12.584H232.116ZM254.848 35.5332C254.848 34.4102 255.223 33.4987 255.971 32.7988C256.736 32.099 257.688 31.749 258.828 31.749C259.983 31.749 260.936 32.099 261.684 32.7988C262.449 33.4987 262.832 34.4102 262.832 35.5332C262.832 36.64 262.457 37.5433 261.709 38.2432C260.96 38.9268 260 39.2686 258.828 39.2686C257.672 39.2686 256.72 38.9268 255.971 38.2432C255.223 37.5433 254.848 36.64 254.848 35.5332ZM296.774 25.9873H290.939V39H283.615V3.45312H296.823C301.022 3.45312 304.261 4.389 306.539 6.26074C308.818 8.13249 309.957 10.7773 309.957 14.1953C309.957 16.6204 309.428 18.6468 308.37 20.2744C307.329 21.8857 305.742 23.1715 303.61 24.1318L311.3 38.6582V39H303.439L296.774 25.9873ZM290.939 20.0547H296.847C298.686 20.0547 300.11 19.5908 301.119 18.6631C302.129 17.7191 302.633 16.4251 302.633 14.7812C302.633 13.1048 302.153 11.7865 301.193 10.8262C300.249 9.86589 298.792 9.38574 296.823 9.38574H290.939V20.0547ZM328.076 39.4883C324.202 39.4883 321.045 38.3001 318.603 35.9238C316.178 33.5475 314.965 30.3818 314.965 26.4268V25.7432C314.965 23.0902 315.478 20.722 316.504 18.6387C317.529 16.5391 318.978 14.9277 320.849 13.8047C322.737 12.6654 324.886 12.0957 327.295 12.0957C330.908 12.0957 333.748 13.235 335.815 15.5137C337.898 17.7923 338.94 21.0231 338.94 25.2061V28.0869H322.119C322.347 29.8122 323.03 31.1956 324.17 32.2373C325.325 33.279 326.782 33.7998 328.54 33.7998C331.258 33.7998 333.382 32.8151 334.912 30.8457L338.379 34.7275C337.321 36.2249 335.888 37.3968 334.082 38.2432C332.275 39.0732 330.273 39.4883 328.076 39.4883ZM327.27 17.8086C325.87 17.8086 324.731 18.2806 323.852 19.2246C322.99 20.1686 322.436 21.5195 322.192 23.2773H332.007V22.7158C331.974 21.1533 331.551 19.9489 330.737 19.1025C329.923 18.2399 328.768 17.8086 327.27 17.8086ZM367.581 26.0361C367.581 30.1051 366.653 33.3685 364.798 35.8262C362.959 38.2676 360.468 39.4883 357.327 39.4883C354.658 39.4883 352.501 38.5605 350.857 36.7051V49.1562H343.802V12.584H350.345L350.589 15.1719C352.298 13.1211 354.528 12.0957 357.278 12.0957C360.534 12.0957 363.064 13.3001 364.871 15.709C366.678 18.1178 367.581 21.4382 367.581 25.6699V26.0361ZM360.525 25.5234C360.525 23.0658 360.086 21.1696 359.207 19.835C358.344 18.5003 357.083 17.833 355.423 17.833C353.209 17.833 351.688 18.6794 350.857 20.3721V31.1875C351.72 32.929 353.258 33.7998 355.472 33.7998C358.841 33.7998 360.525 31.041 360.525 25.5234ZM384.967 39.4883C381.093 39.4883 377.936 38.3001 375.494 35.9238C373.069 33.5475 371.857 30.3818 371.857 26.4268V25.7432C371.857 23.0902 372.369 20.722 373.395 18.6387C374.42 16.5391 375.869 14.9277 377.741 13.8047C379.629 12.6654 381.777 12.0957 384.186 12.0957C387.799 12.0957 390.639 13.235 392.706 15.5137C394.79 17.7923 395.831 21.0231 395.831 25.2061V28.0869H379.01C379.238 29.8122 379.922 31.1956 381.061 32.2373C382.216 33.279 383.673 33.7998 385.431 33.7998C388.149 33.7998 390.273 32.8151 391.803 30.8457L395.27 34.7275C394.212 36.2249 392.78 37.3968 390.973 38.2432C389.166 39.0732 387.164 39.4883 384.967 39.4883ZM384.161 17.8086C382.762 17.8086 381.622 18.2806 380.743 19.2246C379.881 20.1686 379.327 21.5195 379.083 23.2773H388.898V22.7158C388.865 21.1533 388.442 19.9489 387.628 19.1025C386.814 18.2399 385.659 17.8086 384.161 17.8086ZM416.001 39C415.675 38.3652 415.439 37.5758 415.293 36.6318C413.584 38.5361 411.362 39.4883 408.628 39.4883C406.04 39.4883 403.891 38.7396 402.182 37.2422C400.49 35.7448 399.643 33.8568 399.643 31.5781C399.643 28.7786 400.677 26.6302 402.744 25.1328C404.827 23.6354 407.83 22.8786 411.753 22.8623H415V21.3486C415 20.1279 414.682 19.1514 414.048 18.4189C413.429 17.6865 412.444 17.3203 411.093 17.3203C409.905 17.3203 408.969 17.6051 408.286 18.1748C407.618 18.7445 407.285 19.5257 407.285 20.5186H400.229C400.229 18.9886 400.701 17.5726 401.645 16.2705C402.589 14.9684 403.924 13.9512 405.649 13.2188C407.374 12.4701 409.311 12.0957 411.46 12.0957C414.715 12.0957 417.295 12.9176 419.199 14.5615C421.119 16.1891 422.08 18.484 422.08 21.4463V32.8965C422.096 35.403 422.446 37.2992 423.13 38.585V39H416.001ZM410.166 34.0928C411.207 34.0928 412.168 33.8649 413.047 33.4092C413.925 32.9372 414.576 32.3105 415 31.5293V26.9883H412.363C408.831 26.9883 406.951 28.209 406.723 30.6504L406.699 31.0654C406.699 31.9443 407.008 32.6686 407.627 33.2383C408.245 33.8079 409.091 34.0928 410.166 34.0928ZM436.78 6.08984V12.584H441.297V17.7598H436.78V30.9434C436.78 31.9199 436.967 32.6198 437.342 33.043C437.716 33.4661 438.432 33.6777 439.49 33.6777C440.271 33.6777 440.963 33.6208 441.565 33.5068V38.8535C440.182 39.2767 438.758 39.4883 437.293 39.4883C432.345 39.4883 429.822 36.9899 429.725 31.9932V17.7598H425.867V12.584H429.725V6.08984H436.78ZM446.427 35.5332C446.427 34.4102 446.801 33.4987 447.55 32.7988C448.315 32.099 449.267 31.749 450.407 31.749C451.562 31.749 452.514 32.099 453.263 32.7988C454.028 33.4987 454.41 34.4102 454.41 35.5332C454.41 36.64 454.036 37.5433 453.287 38.2432C452.539 38.9268 451.578 39.2686 450.407 39.2686C449.251 39.2686 448.299 38.9268 447.55 38.2432C446.801 37.5433 446.427 36.64 446.427 35.5332Z" fill="white"/>
</svg>
